<svg width="36" height="36" viewBox="0 0 36 36" fill="none" xmlns="http://www.w3.org/2000/svg">
<path d="M0 8C0 3.58172 3.58172 0 8 0H28C32.4183 0 36 3.58172 36 8V28C36 32.4183 32.4183 36 28 36H8C3.58172 36 0 32.4183 0 28V8Z" fill="#F1F1F1"/>
<path d="M24.6667 9.66583H11.3333C10.4142 9.66583 9.66667 10.4133 9.66667 11.3325V26.3325L13 22.9992H24.6667C25.5858 22.9992 26.3333 22.2517 26.3333 21.3325V11.3325C26.3333 10.4133 25.5858 9.66583 24.6667 9.66583ZM19.6667 18.8325H13.8333V17.1658H19.6667V18.8325ZM22.1667 15.4992H13.8333V13.8325H22.1667V15.4992Z" fill="#9AA7B6"/>
</svg>
