<svg width="36" height="36" viewBox="0 0 36 36" fill="none" xmlns="http://www.w3.org/2000/svg">
<path d="M0 8C0 3.58172 3.58172 0 8 0H28C32.4183 0 36 3.58172 36 8V28C36 32.4183 32.4183 36 28 36H8C3.58172 36 0 32.4183 0 28V8Z" fill="#F1F1F1"/>
<path d="M26.9429 11.4892C26.124 9.80868 23.7651 8.43368 21.0212 9.23424C19.7992 9.65712 18.7169 10.4076 17.8923 11.4037C17.2466 12.2489 16.7353 13.1889 16.3768 14.1903L20.3856 15.987L16.9818 19.2015L18.3873 20.8759L17.4279 21.6948L15.2279 19.1159L18.1245 16.3598L14.8001 14.887C15.0935 13.7012 15.5675 12.5676 16.2056 11.5259C16.4015 11.1988 16.6178 10.8845 16.8534 10.5848H16.8901C16.2124 9.9614 15.3983 9.50517 14.5129 9.25257C11.7812 8.4459 9.42843 9.80868 8.60954 11.4892C7.46065 13.842 7.93732 16.4881 10.0273 19.3542C11.6651 21.597 14.0056 23.8703 17.4034 26.5103C17.5108 26.5941 17.6431 26.6396 17.7793 26.6396C17.9154 26.6396 18.0477 26.5941 18.1551 26.5103C21.5468 23.8765 23.8934 21.6215 25.5312 19.3542C27.6151 16.4881 28.0918 13.842 26.9429 11.4892Z" fill="#9AA7B6"/>
</svg>
