<svg width="36" height="36" viewBox="0 0 36 36" fill="none" xmlns="http://www.w3.org/2000/svg">
<path d="M0 8C0 3.58172 3.58172 0 8 0H28C32.4183 0 36 3.58172 36 8V28C36 32.4183 32.4183 36 28 36H8C3.58172 36 0 32.4183 0 28V8Z" fill="#F1F1F1"/>
<path d="M26.5403 12.4838C26.2455 11.8021 25.8204 11.1843 25.2889 10.665C24.757 10.1442 24.1298 9.73036 23.4415 9.44592C22.7277 9.14981 21.9622 8.99824 21.1894 9.00002C20.1051 9.00002 19.0472 9.29656 18.1279 9.85669C17.908 9.99068 17.699 10.1379 17.5011 10.2982C17.3031 10.1379 17.0942 9.99068 16.8743 9.85669C15.955 9.29656 14.8971 9.00002 13.8128 9.00002C13.0321 9.00002 12.2755 9.14938 11.5607 9.44592C10.8701 9.73148 10.2477 10.1422 9.71327 10.665C9.18103 11.1837 8.75586 11.8016 8.46186 12.4838C8.15615 13.1933 8 13.9467 8 14.7221C8 15.4536 8.14955 16.2158 8.44646 16.9912C8.69499 17.6392 9.05128 18.3114 9.50654 18.9901C10.2279 20.0643 11.2198 21.1845 12.4514 22.3202C14.4924 24.2026 16.5136 25.503 16.5994 25.5557L17.1206 25.8896C17.3515 26.0368 17.6484 26.0368 17.8794 25.8896L18.4006 25.5557C18.4864 25.5008 20.5054 24.2026 22.5485 22.3202C23.7802 21.1845 24.7721 20.0643 25.4934 18.9901C25.9487 18.3114 26.3072 17.6392 26.5535 16.9912C26.8504 16.2158 27 15.4536 27 14.7221C27.0022 13.9467 26.846 13.1933 26.5403 12.4838Z" fill="#9AA7B6"/>
</svg>
