<svg width="45" height="45" viewBox="0 0 45 45" fill="none" xmlns="http://www.w3.org/2000/svg">
<path d="M0 15C0 6.71573 6.71573 0 15 0H30C38.2843 0 45 6.71573 45 15V30C45 38.2843 38.2843 45 30 45H15C6.71573 45 0 38.2843 0 30V15Z" fill="#EFF4FC"/>
<path d="M27 15.75C27 15.0596 27.2118 14.3858 27.6067 13.8194C28.0016 13.2531 28.5608 12.8215 29.2086 12.5829C29.8565 12.3443 30.562 12.3102 31.2299 12.4851C31.8978 12.66 32.496 13.0355 32.9438 13.561C33.3916 14.0865 33.6675 14.7367 33.7342 15.4239C33.8009 16.1111 33.6553 16.8023 33.3169 17.4041C32.9785 18.0059 32.4637 18.4895 31.8419 18.7896C31.2201 19.0896 30.5212 19.1918 29.8395 19.0823L27.5468 22.86C28.0302 23.5721 28.2234 24.4421 28.0866 25.2919C27.9499 26.1417 27.4936 26.9072 26.8112 27.4317C26.1287 27.9562 25.2716 28.2002 24.4152 28.1137C23.5588 28.0271 22.7679 27.6167 22.2041 26.9663L17.9955 29.07C18.0389 29.8894 17.7823 30.6966 17.2736 31.3405C16.765 31.9844 16.0392 32.4209 15.232 32.5684C14.4248 32.716 13.5915 32.5644 12.888 32.142C12.1845 31.7196 11.6589 31.0554 11.4097 30.2736C11.1604 29.4918 11.2046 28.646 11.5338 27.8943C11.863 27.1427 12.4548 26.5368 13.1984 26.1899C13.942 25.843 14.7866 25.7789 15.5741 26.0096C16.3615 26.2402 17.038 26.7499 17.4769 27.4433L21.4492 25.4576C21.3158 24.8359 21.3606 24.1891 21.5786 23.5918C21.7967 22.9945 22.179 22.4709 22.6817 22.0814C23.1843 21.6919 23.7867 21.4523 24.4195 21.3902C25.0524 21.3281 25.6899 21.4461 26.2586 21.7305L28.2814 18.3971C27.8816 18.0815 27.5586 17.6792 27.3366 17.2207C27.1147 16.7622 26.9996 16.2594 27 15.75Z" fill="#1677F2"/>
</svg>
