<svg width="32" height="19" viewBox="0 0 32 19" fill="none" xmlns="http://www.w3.org/2000/svg">
<path d="M0 4C0 1.79086 1.79086 0 4 0H28C30.2091 0 32 1.79086 32 4V15C32 17.2091 30.2091 19 28 19H4C1.79086 19 0 17.2091 0 15V4Z" fill="#F1F1F1"/>
<path d="M10.375 11.6875C9.92745 11.6875 9.49822 11.5097 9.18176 11.1932C8.86529 10.8768 8.6875 10.4476 8.6875 10C8.6875 9.55245 8.86529 9.12322 9.18176 8.80676C9.49822 8.49029 9.92745 8.3125 10.375 8.3125C10.8226 8.3125 11.2518 8.49029 11.5682 8.80676C11.8847 9.12322 12.0625 9.55245 12.0625 10C12.0625 10.4476 11.8847 10.8768 11.5682 11.1932C11.2518 11.5097 10.8226 11.6875 10.375 11.6875ZM16 11.6875C15.5524 11.6875 15.1232 11.5097 14.8068 11.1932C14.4903 10.8768 14.3125 10.4476 14.3125 10C14.3125 9.55245 14.4903 9.12322 14.8068 8.80676C15.1232 8.49029 15.5524 8.3125 16 8.3125C16.4476 8.3125 16.8768 8.49029 17.1932 8.80676C17.5097 9.12322 17.6875 9.55245 17.6875 10C17.6875 10.4476 17.5097 10.8768 17.1932 11.1932C16.8768 11.5097 16.4476 11.6875 16 11.6875ZM21.625 11.6875C21.1774 11.6875 20.7482 11.5097 20.4318 11.1932C20.1153 10.8768 19.9375 10.4476 19.9375 10C19.9375 9.55245 20.1153 9.12322 20.4318 8.80676C20.7482 8.49029 21.1774 8.3125 21.625 8.3125C22.0726 8.3125 22.5018 8.49029 22.8182 8.80676C23.1347 9.12322 23.3125 9.55245 23.3125 10C23.3125 10.4476 23.1347 10.8768 22.8182 11.1932C22.5018 11.5097 22.0726 11.6875 21.625 11.6875Z" fill="#BAC4CF"/>
</svg>
