<svg width="17" height="17" viewBox="0 0 17 17" fill="none" xmlns="http://www.w3.org/2000/svg">
<g clip-path="url(#clip0_20_19)">
<path d="M15.5834 3.60777C14.9506 2.30916 13.1278 1.24666 11.0075 1.86527C10.0632 2.19204 9.22689 2.77194 8.58974 3.54166C8.09075 4.1948 7.69571 4.92116 7.41863 5.69499L10.5164 7.08332L7.88613 9.56721L8.97224 10.8611L8.23085 11.4939L6.53085 9.5011L8.76918 7.37138L6.2003 6.23332C6.427 5.31701 6.79332 4.44102 7.28641 3.6361C7.43774 3.38337 7.60492 3.14047 7.78696 2.90888H7.8153C7.29165 2.42716 6.66257 2.07462 5.97835 1.87943C3.86752 1.2561 2.04946 2.30916 1.41669 3.60777C0.528908 5.42582 0.897241 7.47054 2.51224 9.68527C3.7778 11.4183 5.58641 13.175 8.21196 15.215C8.29494 15.2797 8.39715 15.3149 8.50238 15.3149C8.60761 15.3149 8.70982 15.2797 8.7928 15.215C11.4136 13.1797 13.227 11.4372 14.4925 9.68527C16.1028 7.47054 16.4711 5.42582 15.5834 3.60777Z" fill="#9AA7B6"/>
</g>
<defs>
<clipPath id="clip0_20_19">
<rect width="17" height="17" fill="white"/>
</clipPath>
</defs>
</svg>
