<svg width="638" height="95" viewBox="0 0 638 95" fill="none" xmlns="http://www.w3.org/2000/svg">
<g filter="url(#filter0_d_247_7)">
<rect x="189" y="21" width="434" height="50" rx="8" fill="url(#paint0_linear_247_7)"/>
</g>
<path d="M210.475 51H209.125V40.2H210.475V51ZM215.129 51.405C214.529 51.405 214.059 51.195 213.719 50.775C213.379 50.345 213.209 49.75 213.209 48.99V44.25H212.129V42.9H213.209V40.2H214.559V42.9H216.209V44.25H214.559V48.96C214.559 49.59 214.809 49.905 215.309 49.905C215.569 49.905 215.844 49.855 216.134 49.755L216.434 51.105C215.954 51.305 215.519 51.405 215.129 51.405ZM226.129 50.055C226.799 50.055 227.329 49.94 227.719 49.71C228.109 49.47 228.304 49.125 228.304 48.675C228.304 48.305 228.129 48.045 227.779 47.895C227.449 47.735 227.094 47.625 226.714 47.565L226.039 47.445C224.889 47.235 224.084 46.96 223.624 46.62C223.164 46.28 222.934 45.77 222.934 45.09C222.934 44.35 223.229 43.735 223.819 43.245C224.419 42.745 225.164 42.495 226.054 42.495C226.744 42.495 227.329 42.6 227.809 42.81C228.299 43.02 228.784 43.355 229.264 43.815L228.319 44.7C227.689 44.13 226.974 43.845 226.174 43.845C225.664 43.845 225.224 43.94 224.854 44.13C224.474 44.33 224.284 44.635 224.284 45.045C224.284 45.335 224.424 45.56 224.704 45.72C224.994 45.87 225.464 45.995 226.114 46.095C226.884 46.225 227.499 46.36 227.959 46.5C229.089 46.85 229.654 47.615 229.654 48.795C229.654 49.535 229.334 50.155 228.694 50.655C228.054 51.155 227.199 51.405 226.129 51.405C224.729 51.405 223.564 50.84 222.634 49.71L223.684 48.825C223.844 49.035 224.024 49.24 224.224 49.44C224.654 49.85 225.289 50.055 226.129 50.055ZM235.319 51.405C234.089 51.425 233.044 50.995 232.184 50.115C231.334 49.235 230.919 48.18 230.939 46.95C230.919 45.74 231.339 44.69 232.199 43.8C233.069 42.9 234.089 42.465 235.259 42.495C236.439 42.495 237.429 42.885 238.229 43.665C239.039 44.445 239.444 45.44 239.444 46.65C239.444 47.03 239.394 47.375 239.294 47.685H232.319C232.409 48.245 232.759 48.785 233.369 49.305C233.989 49.825 234.639 50.075 235.319 50.055C235.809 50.055 236.284 49.945 236.744 49.725C237.214 49.495 237.574 49.205 237.824 48.855L239.054 49.47C238.094 50.76 236.849 51.405 235.319 51.405ZM235.274 43.845C234.464 43.845 233.799 44.075 233.279 44.535C232.769 44.995 232.454 45.595 232.334 46.335H238.049C238.009 45.615 237.729 45.02 237.209 44.55C236.689 44.08 236.044 43.845 235.274 43.845ZM245.016 51.405C243.786 51.425 242.741 50.995 241.881 50.115C241.031 49.235 240.616 48.18 240.636 46.95C240.616 45.74 241.036 44.69 241.896 43.8C242.766 42.9 243.786 42.465 244.956 42.495C246.136 42.495 247.126 42.885 247.926 43.665C248.736 44.445 249.141 45.44 249.141 46.65C249.141 47.03 249.091 47.375 248.991 47.685H242.016C242.106 48.245 242.456 48.785 243.066 49.305C243.686 49.825 244.336 50.075 245.016 50.055C245.506 50.055 245.981 49.945 246.441 49.725C246.911 49.495 247.271 49.205 247.521 48.855L248.751 49.47C247.791 50.76 246.546 51.405 245.016 51.405ZM244.971 43.845C244.161 43.845 243.496 44.075 242.976 44.535C242.466 44.995 242.151 45.595 242.031 46.335H247.746C247.706 45.615 247.426 45.02 246.906 44.55C246.386 44.08 245.741 43.845 244.971 43.845ZM262.559 46.515V51H261.209V46.44C261.209 45.55 261.074 44.9 260.804 44.49C260.544 44.07 260.059 43.86 259.349 43.86C258.739 43.86 258.254 44.07 257.894 44.49C257.534 44.9 257.354 45.46 257.354 46.17V51H256.004V46.305C256.004 45.485 255.859 44.875 255.569 44.475C255.289 44.065 254.809 43.86 254.129 43.86C253.579 43.86 253.109 44.095 252.719 44.565C252.329 45.035 252.134 45.615 252.134 46.305V51H250.784V42.9H252.134V43.56C252.294 43.26 252.574 43.01 252.974 42.81C253.384 42.61 253.804 42.51 254.234 42.51C254.824 42.51 255.314 42.61 255.704 42.81C256.094 43 256.439 43.31 256.739 43.74C257.009 43.36 257.389 43.06 257.879 42.84C258.379 42.62 258.889 42.51 259.409 42.51C260.529 42.51 261.334 42.8 261.824 43.38C262.314 43.96 262.559 45.005 262.559 46.515ZM267.466 50.055C268.136 50.055 268.666 49.94 269.056 49.71C269.446 49.47 269.641 49.125 269.641 48.675C269.641 48.305 269.466 48.045 269.116 47.895C268.786 47.735 268.431 47.625 268.051 47.565L267.376 47.445C266.226 47.235 265.421 46.96 264.961 46.62C264.501 46.28 264.271 45.77 264.271 45.09C264.271 44.35 264.566 43.735 265.156 43.245C265.756 42.745 266.501 42.495 267.391 42.495C268.081 42.495 268.666 42.6 269.146 42.81C269.636 43.02 270.121 43.355 270.601 43.815L269.656 44.7C269.026 44.13 268.311 43.845 267.511 43.845C267.001 43.845 266.561 43.94 266.191 44.13C265.811 44.33 265.621 44.635 265.621 45.045C265.621 45.335 265.761 45.56 266.041 45.72C266.331 45.87 266.801 45.995 267.451 46.095C268.221 46.225 268.836 46.36 269.296 46.5C270.426 46.85 270.991 47.615 270.991 48.795C270.991 49.535 270.671 50.155 270.031 50.655C269.391 51.155 268.536 51.405 267.466 51.405C266.066 51.405 264.901 50.84 263.971 49.71L265.021 48.825C265.181 49.035 265.361 49.24 265.561 49.44C265.991 49.85 266.626 50.055 267.466 50.055ZM280.065 51.405C279.465 51.405 278.995 51.195 278.655 50.775C278.315 50.345 278.145 49.75 278.145 48.99V44.25H277.065V42.9H278.145V40.2H279.495V42.9H281.145V44.25H279.495V48.96C279.495 49.59 279.745 49.905 280.245 49.905C280.505 49.905 280.78 49.855 281.07 49.755L281.37 51.105C280.89 51.305 280.455 51.405 280.065 51.405ZM290.477 46.785V51H289.127V46.71C289.127 45.72 288.952 45 288.602 44.55C288.252 44.09 287.682 43.86 286.892 43.86C286.222 43.86 285.657 44.1 285.197 44.58C284.737 45.06 284.507 45.725 284.507 46.575V51H283.157V40.2H284.507V43.56C284.667 43.31 284.987 43.07 285.467 42.84C285.937 42.62 286.442 42.51 286.982 42.51C288.142 42.51 289.012 42.845 289.592 43.515C290.182 44.185 290.477 45.275 290.477 46.785ZM296.403 51.405C295.173 51.425 294.128 50.995 293.268 50.115C292.418 49.235 292.003 48.18 292.023 46.95C292.003 45.74 292.423 44.69 293.283 43.8C294.153 42.9 295.173 42.465 296.343 42.495C297.523 42.495 298.513 42.885 299.313 43.665C300.123 44.445 300.528 45.44 300.528 46.65C300.528 47.03 300.478 47.375 300.378 47.685H293.403C293.493 48.245 293.843 48.785 294.453 49.305C295.073 49.825 295.723 50.075 296.403 50.055C296.893 50.055 297.368 49.945 297.828 49.725C298.298 49.495 298.658 49.205 298.908 48.855L300.138 49.47C299.178 50.76 297.933 51.405 296.403 51.405ZM296.358 43.845C295.548 43.845 294.883 44.075 294.363 44.535C293.853 44.995 293.538 45.595 293.418 46.335H299.133C299.093 45.615 298.813 45.02 298.293 44.55C297.773 44.08 297.128 43.845 296.358 43.845ZM307.06 42.975L306.325 44.34C305.975 44.03 305.57 43.875 305.11 43.875C304.7 43.875 304.33 44.1 304 44.55C303.68 44.99 303.52 45.49 303.52 46.05V51H302.17V42.9H303.52V43.56C303.71 43.27 303.99 43.025 304.36 42.825C304.74 42.615 305.125 42.51 305.515 42.51C306.135 42.51 306.65 42.665 307.06 42.975ZM311.901 51.405C310.671 51.425 309.626 50.995 308.766 50.115C307.916 49.235 307.501 48.18 307.521 46.95C307.501 45.74 307.921 44.69 308.781 43.8C309.651 42.9 310.671 42.465 311.841 42.495C313.021 42.495 314.011 42.885 314.811 43.665C315.621 44.445 316.026 45.44 316.026 46.65C316.026 47.03 315.976 47.375 315.876 47.685H308.901C308.991 48.245 309.341 48.785 309.951 49.305C310.571 49.825 311.221 50.075 311.901 50.055C312.391 50.055 312.866 49.945 313.326 49.725C313.796 49.495 314.156 49.205 314.406 48.855L315.636 49.47C314.676 50.76 313.431 51.405 311.901 51.405ZM311.856 43.845C311.046 43.845 310.381 44.075 309.861 44.535C309.351 44.995 309.036 45.595 308.916 46.335H314.631C314.591 45.615 314.311 45.02 313.791 44.55C313.271 44.08 312.626 43.845 311.856 43.845ZM329.702 47.775V51H328.352V49.92C328.142 50.27 327.757 50.605 327.197 50.925C326.647 51.245 326.062 51.405 325.442 51.405C324.512 51.405 323.737 51.145 323.117 50.625C322.497 50.095 322.187 49.41 322.187 48.57C322.187 47.8 322.482 47.145 323.072 46.605C323.672 46.065 324.527 45.795 325.637 45.795C325.957 45.795 326.277 45.805 326.597 45.825C326.927 45.845 327.192 45.87 327.392 45.9C327.592 45.92 327.777 45.945 327.947 45.975C328.127 45.995 328.222 46.005 328.232 46.005C328.072 44.535 327.287 43.8 325.877 43.8C324.827 43.8 323.967 44.06 323.297 44.58L322.637 43.5C323.047 43.18 323.537 42.935 324.107 42.765C324.687 42.585 325.232 42.495 325.742 42.495C327.292 42.495 328.372 42.975 328.982 43.935C329.462 44.675 329.702 45.955 329.702 47.775ZM328.337 47.325C328.337 47.315 327.997 47.285 327.317 47.235C326.647 47.175 326.022 47.145 325.442 47.145C324.902 47.145 324.452 47.26 324.092 47.49C323.732 47.72 323.547 48.05 323.537 48.48C323.547 48.96 323.717 49.345 324.047 49.635C324.377 49.915 324.837 50.055 325.427 50.055C326.307 50.055 327.012 49.8 327.542 49.29C328.072 48.78 328.337 48.125 328.337 47.325ZM336.636 42.975L335.901 44.34C335.551 44.03 335.146 43.875 334.686 43.875C334.276 43.875 333.906 44.1 333.576 44.55C333.256 44.99 333.096 45.49 333.096 46.05V51H331.746V42.9H333.096V43.56C333.286 43.27 333.566 43.025 333.936 42.825C334.316 42.615 334.701 42.51 335.091 42.51C335.711 42.51 336.226 42.665 336.636 42.975ZM341.476 51.405C340.246 51.425 339.201 50.995 338.341 50.115C337.491 49.235 337.076 48.18 337.096 46.95C337.076 45.74 337.496 44.69 338.356 43.8C339.226 42.9 340.246 42.465 341.416 42.495C342.596 42.495 343.586 42.885 344.386 43.665C345.196 44.445 345.601 45.44 345.601 46.65C345.601 47.03 345.551 47.375 345.451 47.685H338.476C338.566 48.245 338.916 48.785 339.526 49.305C340.146 49.825 340.796 50.075 341.476 50.055C341.966 50.055 342.441 49.945 342.901 49.725C343.371 49.495 343.731 49.205 343.981 48.855L345.211 49.47C344.251 50.76 343.006 51.405 341.476 51.405ZM341.431 43.845C340.621 43.845 339.956 44.075 339.436 44.535C338.926 44.995 338.611 45.595 338.491 46.335H344.206C344.166 45.615 343.886 45.02 343.366 44.55C342.846 44.08 342.201 43.845 341.431 43.845ZM354.699 46.515V51H353.349V46.305C353.349 44.675 352.604 43.86 351.114 43.86C350.424 43.86 349.829 44.07 349.329 44.49C348.839 44.9 348.594 45.46 348.594 46.17V51H347.244V42.9H348.594V43.56C348.774 43.25 349.104 43 349.584 42.81C350.094 42.61 350.589 42.51 351.069 42.51C352.319 42.51 353.234 42.825 353.814 43.455C354.404 44.075 354.699 45.095 354.699 46.515ZM357.787 43.425L356.977 42.795C357.277 42.495 357.427 42.125 357.427 41.685H356.992V40.2H358.492V41.685C358.492 42.435 358.257 43.015 357.787 43.425ZM363.386 51.405C362.786 51.405 362.316 51.195 361.976 50.775C361.636 50.345 361.466 49.75 361.466 48.99V44.25H360.386V42.9H361.466V40.2H362.816V42.9H364.466V44.25H362.816V48.96C362.816 49.59 363.066 49.905 363.566 49.905C363.826 49.905 364.101 49.855 364.391 49.755L364.691 51.105C364.211 51.305 363.776 51.405 363.386 51.405ZM378.51 47.775V51H377.16V49.92C376.95 50.27 376.565 50.605 376.005 50.925C375.455 51.245 374.87 51.405 374.25 51.405C373.32 51.405 372.545 51.145 371.925 50.625C371.305 50.095 370.995 49.41 370.995 48.57C370.995 47.8 371.29 47.145 371.88 46.605C372.48 46.065 373.335 45.795 374.445 45.795C374.765 45.795 375.085 45.805 375.405 45.825C375.735 45.845 376 45.87 376.2 45.9C376.4 45.92 376.585 45.945 376.755 45.975C376.935 45.995 377.03 46.005 377.04 46.005C376.88 44.535 376.095 43.8 374.685 43.8C373.635 43.8 372.775 44.06 372.105 44.58L371.445 43.5C371.855 43.18 372.345 42.935 372.915 42.765C373.495 42.585 374.04 42.495 374.55 42.495C376.1 42.495 377.18 42.975 377.79 43.935C378.27 44.675 378.51 45.955 378.51 47.775ZM377.145 47.325C377.145 47.315 376.805 47.285 376.125 47.235C375.455 47.175 374.83 47.145 374.25 47.145C373.71 47.145 373.26 47.26 372.9 47.49C372.54 47.72 372.355 48.05 372.345 48.48C372.355 48.96 372.525 49.345 372.855 49.635C373.185 49.915 373.645 50.055 374.235 50.055C375.115 50.055 375.82 49.8 376.35 49.29C376.88 48.78 377.145 48.125 377.145 47.325ZM388.009 46.515V51H386.659V46.305C386.659 44.675 385.914 43.86 384.424 43.86C383.734 43.86 383.139 44.07 382.639 44.49C382.149 44.9 381.904 45.46 381.904 46.17V51H380.554V42.9H381.904V43.56C382.084 43.25 382.414 43 382.894 42.81C383.404 42.61 383.899 42.51 384.379 42.51C385.629 42.51 386.544 42.825 387.124 43.455C387.714 44.075 388.009 45.095 388.009 46.515ZM397.038 42.9L393.198 52.74C392.848 53.57 392.533 54.13 392.253 54.42C391.983 54.72 391.553 54.885 390.963 54.915C390.523 54.915 390.033 54.79 389.493 54.54L389.973 53.355C390.303 53.495 390.578 53.565 390.798 53.565C391.008 53.565 391.163 53.515 391.263 53.415C391.393 53.315 391.493 53.19 391.563 53.04L392.013 52.02L392.478 50.91L389.358 42.9H390.798L393.198 48.99L395.598 42.9H397.038ZM407.472 51.405C406.262 51.425 405.207 50.99 404.307 50.1C403.417 49.21 402.982 48.16 403.002 46.95C402.982 45.75 403.417 44.705 404.307 43.815C405.207 42.915 406.262 42.475 407.472 42.495C408.952 42.495 410.102 43.09 410.922 44.28L409.797 44.985C409.247 44.225 408.502 43.845 407.562 43.845C406.662 43.845 405.902 44.145 405.282 44.745C404.662 45.345 404.352 46.08 404.352 46.95C404.352 47.81 404.662 48.545 405.282 49.155C405.912 49.755 406.672 50.055 407.562 50.055C408.502 50.055 409.247 49.675 409.797 48.915L410.922 49.62C410.102 50.81 408.952 51.405 407.472 51.405ZM421.008 46.95C421.028 48.16 420.588 49.21 419.688 50.1C418.798 50.99 417.753 51.425 416.553 51.405C415.343 51.425 414.293 50.99 413.403 50.1C412.513 49.21 412.078 48.16 412.098 46.95C412.078 45.75 412.513 44.705 413.403 43.815C414.293 42.915 415.343 42.475 416.553 42.495C417.753 42.475 418.798 42.915 419.688 43.815C420.588 44.705 421.028 45.75 421.008 46.95ZM414.363 44.76C413.753 45.37 413.448 46.1 413.448 46.95C413.448 47.8 413.753 48.53 414.363 49.14C414.973 49.75 415.703 50.055 416.553 50.055C417.403 50.055 418.133 49.75 418.743 49.14C419.353 48.53 419.658 47.8 419.658 46.95C419.658 46.1 419.353 45.37 418.743 44.76C418.133 44.15 417.403 43.845 416.553 43.845C415.703 43.845 414.973 44.15 414.363 44.76ZM434.517 46.515V51H433.167V46.44C433.167 45.55 433.032 44.9 432.762 44.49C432.502 44.07 432.017 43.86 431.307 43.86C430.697 43.86 430.212 44.07 429.852 44.49C429.492 44.9 429.312 45.46 429.312 46.17V51H427.962V46.305C427.962 45.485 427.817 44.875 427.527 44.475C427.247 44.065 426.767 43.86 426.087 43.86C425.537 43.86 425.067 44.095 424.677 44.565C424.287 45.035 424.092 45.615 424.092 46.305V51H422.742V42.9H424.092V43.56C424.252 43.26 424.532 43.01 424.932 42.81C425.342 42.61 425.762 42.51 426.192 42.51C426.782 42.51 427.272 42.61 427.662 42.81C428.052 43 428.397 43.31 428.697 43.74C428.967 43.36 429.347 43.06 429.837 42.84C430.337 42.62 430.847 42.51 431.367 42.51C432.487 42.51 433.292 42.8 433.782 43.38C434.272 43.96 434.517 45.005 434.517 46.515ZM448.154 46.515V51H446.804V46.44C446.804 45.55 446.669 44.9 446.399 44.49C446.139 44.07 445.654 43.86 444.944 43.86C444.334 43.86 443.849 44.07 443.489 44.49C443.129 44.9 442.949 45.46 442.949 46.17V51H441.599V46.305C441.599 45.485 441.454 44.875 441.164 44.475C440.884 44.065 440.404 43.86 439.724 43.86C439.174 43.86 438.704 44.095 438.314 44.565C437.924 45.035 437.729 45.615 437.729 46.305V51H436.379V42.9H437.729V43.56C437.889 43.26 438.169 43.01 438.569 42.81C438.979 42.61 439.399 42.51 439.829 42.51C440.419 42.51 440.909 42.61 441.299 42.81C441.689 43 442.034 43.31 442.334 43.74C442.604 43.36 442.984 43.06 443.474 42.84C443.974 42.62 444.484 42.51 445.004 42.51C446.124 42.51 446.929 42.8 447.419 43.38C447.909 43.96 448.154 45.005 448.154 46.515ZM453.947 51.405C452.717 51.425 451.672 50.995 450.812 50.115C449.962 49.235 449.547 48.18 449.567 46.95C449.547 45.74 449.967 44.69 450.827 43.8C451.697 42.9 452.717 42.465 453.887 42.495C455.067 42.495 456.057 42.885 456.857 43.665C457.667 44.445 458.072 45.44 458.072 46.65C458.072 47.03 458.022 47.375 457.922 47.685H450.947C451.037 48.245 451.387 48.785 451.997 49.305C452.617 49.825 453.267 50.075 453.947 50.055C454.437 50.055 454.912 49.945 455.372 49.725C455.842 49.495 456.202 49.205 456.452 48.855L457.682 49.47C456.722 50.76 455.477 51.405 453.947 51.405ZM453.902 43.845C453.092 43.845 452.427 44.075 451.907 44.535C451.397 44.995 451.082 45.595 450.962 46.335H456.677C456.637 45.615 456.357 45.02 455.837 44.55C455.317 44.08 454.672 43.845 453.902 43.845ZM467.169 46.515V51H465.819V46.305C465.819 44.675 465.074 43.86 463.584 43.86C462.894 43.86 462.299 44.07 461.799 44.49C461.309 44.9 461.064 45.46 461.064 46.17V51H459.714V42.9H461.064V43.56C461.244 43.25 461.574 43 462.054 42.81C462.564 42.61 463.059 42.51 463.539 42.51C464.789 42.51 465.704 42.825 466.284 43.455C466.874 44.075 467.169 45.095 467.169 46.515ZM471.638 51.405C471.038 51.405 470.568 51.195 470.228 50.775C469.888 50.345 469.718 49.75 469.718 48.99V44.25H468.638V42.9H469.718V40.2H471.068V42.9H472.718V44.25H471.068V48.96C471.068 49.59 471.318 49.905 471.818 49.905C472.078 49.905 472.353 49.855 472.643 49.755L472.943 51.105C472.463 51.305 472.028 51.405 471.638 51.405ZM477.774 50.055C478.444 50.055 478.974 49.94 479.364 49.71C479.754 49.47 479.949 49.125 479.949 48.675C479.949 48.305 479.774 48.045 479.424 47.895C479.094 47.735 478.739 47.625 478.359 47.565L477.684 47.445C476.534 47.235 475.729 46.96 475.269 46.62C474.809 46.28 474.579 45.77 474.579 45.09C474.579 44.35 474.874 43.735 475.464 43.245C476.064 42.745 476.809 42.495 477.699 42.495C478.389 42.495 478.974 42.6 479.454 42.81C479.944 43.02 480.429 43.355 480.909 43.815L479.964 44.7C479.334 44.13 478.619 43.845 477.819 43.845C477.309 43.845 476.869 43.94 476.499 44.13C476.119 44.33 475.929 44.635 475.929 45.045C475.929 45.335 476.069 45.56 476.349 45.72C476.639 45.87 477.109 45.995 477.759 46.095C478.529 46.225 479.144 46.36 479.604 46.5C480.734 46.85 481.299 47.615 481.299 48.795C481.299 49.535 480.979 50.155 480.339 50.655C479.699 51.155 478.844 51.405 477.774 51.405C476.374 51.405 475.209 50.84 474.279 49.71L475.329 48.825C475.489 49.035 475.669 49.24 475.869 49.44C476.299 49.85 476.934 50.055 477.774 50.055ZM494.933 42.9L491.093 52.74C490.743 53.57 490.428 54.13 490.148 54.42C489.878 54.72 489.448 54.885 488.858 54.915C488.418 54.915 487.928 54.79 487.388 54.54L487.868 53.355C488.198 53.495 488.473 53.565 488.693 53.565C488.903 53.565 489.058 53.515 489.158 53.415C489.288 53.315 489.388 53.19 489.458 53.04L489.908 52.02L490.373 50.91L487.253 42.9H488.693L491.093 48.99L493.493 42.9H494.933ZM500.339 51.405C499.109 51.425 498.064 50.995 497.204 50.115C496.354 49.235 495.939 48.18 495.959 46.95C495.939 45.74 496.359 44.69 497.219 43.8C498.089 42.9 499.109 42.465 500.279 42.495C501.459 42.495 502.449 42.885 503.249 43.665C504.059 44.445 504.464 45.44 504.464 46.65C504.464 47.03 504.414 47.375 504.314 47.685H497.339C497.429 48.245 497.779 48.785 498.389 49.305C499.009 49.825 499.659 50.075 500.339 50.055C500.829 50.055 501.304 49.945 501.764 49.725C502.234 49.495 502.594 49.205 502.844 48.855L504.074 49.47C503.114 50.76 501.869 51.405 500.339 51.405ZM500.294 43.845C499.484 43.845 498.819 44.075 498.299 44.535C497.789 44.995 497.474 45.595 497.354 46.335H503.069C503.029 45.615 502.749 45.02 502.229 44.55C501.709 44.08 501.064 43.845 500.294 43.845ZM508.449 51.405C507.849 51.405 507.379 51.195 507.039 50.775C506.699 50.345 506.529 49.75 506.529 48.99V44.25H505.449V42.9H506.529V40.2H507.879V42.9H509.529V44.25H507.879V48.96C507.879 49.59 508.129 49.905 508.629 49.905C508.889 49.905 509.164 49.855 509.454 49.755L509.754 51.105C509.274 51.305 508.839 51.405 508.449 51.405ZM513.326 51H511.841V49.515H513.326V51Z" fill="#67707A"/>
<path d="M527.673 43.14C527.673 44.1 527.288 44.84 526.518 45.36C527.438 45.96 527.898 46.85 527.898 48.03C527.898 48.84 527.593 49.54 526.983 50.13C526.383 50.71 525.663 51 524.823 51H520.638V40.2H524.598C525.448 40.2 526.173 40.485 526.773 41.055C527.373 41.615 527.673 42.31 527.673 43.14ZM522.003 41.565V44.835H524.658C525.138 44.835 525.533 44.675 525.843 44.355C526.163 44.025 526.323 43.62 526.323 43.14C526.323 42.69 526.158 42.315 525.828 42.015C525.498 41.715 525.093 41.565 524.613 41.565H522.003ZM522.003 46.2V49.65H524.823C525.293 49.65 525.698 49.49 526.038 49.17C526.378 48.84 526.548 48.44 526.548 47.97C526.548 47.49 526.398 47.08 526.098 46.74C525.798 46.38 525.443 46.2 525.033 46.2H522.003ZM533.591 51.405C532.361 51.425 531.316 50.995 530.456 50.115C529.606 49.235 529.191 48.18 529.211 46.95C529.191 45.74 529.611 44.69 530.471 43.8C531.341 42.9 532.361 42.465 533.531 42.495C534.711 42.495 535.701 42.885 536.501 43.665C537.311 44.445 537.716 45.44 537.716 46.65C537.716 47.03 537.666 47.375 537.566 47.685H530.591C530.681 48.245 531.031 48.785 531.641 49.305C532.261 49.825 532.911 50.075 533.591 50.055C534.081 50.055 534.556 49.945 535.016 49.725C535.486 49.495 535.846 49.205 536.096 48.855L537.326 49.47C536.366 50.76 535.121 51.405 533.591 51.405ZM533.546 43.845C532.736 43.845 532.071 44.075 531.551 44.535C531.041 44.995 530.726 45.595 530.606 46.335H536.321C536.281 45.615 536.001 45.02 535.481 44.55C534.961 44.08 534.316 43.845 533.546 43.845ZM546.696 51.405C546.096 51.405 545.626 51.195 545.286 50.775C544.946 50.345 544.776 49.75 544.776 48.99V44.25H543.696V42.9H544.776V40.2H546.126V42.9H547.776V44.25H546.126V48.96C546.126 49.59 546.376 49.905 546.876 49.905C547.136 49.905 547.411 49.855 547.701 49.755L548.001 51.105C547.521 51.305 547.086 51.405 546.696 51.405ZM557.108 46.785V51H555.758V46.71C555.758 45.72 555.583 45 555.233 44.55C554.883 44.09 554.313 43.86 553.523 43.86C552.853 43.86 552.288 44.1 551.828 44.58C551.368 45.06 551.138 45.725 551.138 46.575V51H549.788V40.2H551.138V43.56C551.298 43.31 551.618 43.07 552.098 42.84C552.568 42.62 553.073 42.51 553.613 42.51C554.773 42.51 555.643 42.845 556.223 43.515C556.813 44.185 557.108 45.275 557.108 46.785ZM563.034 51.405C561.804 51.425 560.759 50.995 559.899 50.115C559.049 49.235 558.634 48.18 558.654 46.95C558.634 45.74 559.054 44.69 559.914 43.8C560.784 42.9 561.804 42.465 562.974 42.495C564.154 42.495 565.144 42.885 565.944 43.665C566.754 44.445 567.159 45.44 567.159 46.65C567.159 47.03 567.109 47.375 567.009 47.685H560.034C560.124 48.245 560.474 48.785 561.084 49.305C561.704 49.825 562.354 50.075 563.034 50.055C563.524 50.055 563.999 49.945 564.459 49.725C564.929 49.495 565.289 49.205 565.539 48.855L566.769 49.47C565.809 50.76 564.564 51.405 563.034 51.405ZM562.989 43.845C562.179 43.845 561.514 44.075 560.994 44.535C560.484 44.995 560.169 45.595 560.049 46.335H565.764C565.724 45.615 565.444 45.02 564.924 44.55C564.404 44.08 563.759 43.845 562.989 43.845ZM580.37 42.9V51H579.02V44.25H575.315V51H573.965V44.25H573.155V42.9H573.965V42.24C573.965 41.36 574.135 40.735 574.475 40.365C574.825 39.985 575.355 39.795 576.065 39.795C576.495 39.795 576.895 39.84 577.265 39.93L576.995 41.22C576.645 41.17 576.395 41.145 576.245 41.145C575.905 41.145 575.665 41.235 575.525 41.415C575.385 41.595 575.315 41.905 575.315 42.345V42.9H580.37ZM587.388 42.975L586.653 44.34C586.303 44.03 585.898 43.875 585.438 43.875C585.028 43.875 584.658 44.1 584.328 44.55C584.008 44.99 583.848 45.49 583.848 46.05V51H582.498V42.9H583.848V43.56C584.038 43.27 584.318 43.025 584.688 42.825C585.068 42.615 585.453 42.51 585.843 42.51C586.463 42.51 586.978 42.665 587.388 42.975ZM591.622 50.055C592.292 50.055 592.822 49.94 593.212 49.71C593.602 49.47 593.797 49.125 593.797 48.675C593.797 48.305 593.622 48.045 593.272 47.895C592.942 47.735 592.587 47.625 592.207 47.565L591.532 47.445C590.382 47.235 589.577 46.96 589.117 46.62C588.657 46.28 588.427 45.77 588.427 45.09C588.427 44.35 588.722 43.735 589.312 43.245C589.912 42.745 590.657 42.495 591.547 42.495C592.237 42.495 592.822 42.6 593.302 42.81C593.792 43.02 594.277 43.355 594.757 43.815L593.812 44.7C593.182 44.13 592.467 43.845 591.667 43.845C591.157 43.845 590.717 43.94 590.347 44.13C589.967 44.33 589.777 44.635 589.777 45.045C589.777 45.335 589.917 45.56 590.197 45.72C590.487 45.87 590.957 45.995 591.607 46.095C592.377 46.225 592.992 46.36 593.452 46.5C594.582 46.85 595.147 47.615 595.147 48.795C595.147 49.535 594.827 50.155 594.187 50.655C593.547 51.155 592.692 51.405 591.622 51.405C590.222 51.405 589.057 50.84 588.127 49.71L589.177 48.825C589.337 49.035 589.517 49.24 589.717 49.44C590.147 49.85 590.782 50.055 591.622 50.055ZM599.357 51.405C598.757 51.405 598.287 51.195 597.947 50.775C597.607 50.345 597.437 49.75 597.437 48.99V44.25H596.357V42.9H597.437V40.2H598.787V42.9H600.437V44.25H598.787V48.96C598.787 49.59 599.037 49.905 599.537 49.905C599.797 49.905 600.072 49.855 600.362 49.755L600.662 51.105C600.182 51.305 599.747 51.405 599.357 51.405Z" fill="#49525B"/>
<path d="M603.649 47.955H602.629L602.359 40.2H603.919L603.649 47.955ZM603.889 51H602.404V49.515H603.889V51Z" fill="#49525B"/>
<g filter="url(#filter1_d_247_7)">
<rect x="15" y="15" width="119" height="37" rx="10" fill="url(#paint1_linear_247_7)"/>
</g>
<g filter="url(#filter2_d_247_7)">
<rect x="48" y="21" width="77" height="10" rx="5" fill="#E2E2E2"/>
</g>
<g filter="url(#filter3_d_247_7)">
<rect x="48" y="36" width="48" height="9" rx="4.5" fill="#E2E2E2"/>
</g>
<g filter="url(#filter4_d_247_7)">
<rect x="26" y="27" width="13" height="13" rx="6.5" fill="#E2E2E2"/>
</g>
<g filter="url(#filter5_d_247_7)">
<rect x="24" y="25" width="17" height="17" rx="8.5" stroke="url(#paint2_radial_247_7)" stroke-width="2" shape-rendering="crispEdges"/>
</g>
<g filter="url(#filter6_d_247_7)">
<rect x="38" y="43" width="119" height="37" rx="10" fill="url(#paint3_linear_247_7)"/>
</g>
<g filter="url(#filter7_d_247_7)">
<rect x="71" y="49" width="77" height="10" rx="5" fill="#E2E2E2"/>
</g>
<g filter="url(#filter8_d_247_7)">
<rect x="71" y="64" width="48" height="9" rx="4.5" fill="#E2E2E2"/>
</g>
<g filter="url(#filter9_d_247_7)">
<rect x="49" y="55" width="13" height="13" rx="6.5" fill="#E2E2E2"/>
</g>
<g filter="url(#filter10_d_247_7)">
<rect x="47" y="53" width="17" height="17" rx="8.5" stroke="url(#paint4_radial_247_7)" stroke-width="2" shape-rendering="crispEdges"/>
</g>
<defs>
<filter id="filter0_d_247_7" x="174" y="6" width="464" height="80" filterUnits="userSpaceOnUse" color-interpolation-filters="sRGB">
<feFlood flood-opacity="0" result="BackgroundImageFix"/>
<feColorMatrix in="SourceAlpha" type="matrix" values="0 0 0 0 0 0 0 0 0 0 0 0 0 0 0 0 0 0 127 0" result="hardAlpha"/>
<feMorphology radius="5" operator="dilate" in="SourceAlpha" result="effect1_dropShadow_247_7"/>
<feOffset/>
<feGaussianBlur stdDeviation="5"/>
<feComposite in2="hardAlpha" operator="out"/>
<feColorMatrix type="matrix" values="0 0 0 0 0 0 0 0 0 0 0 0 0 0 0 0 0 0 0.01 0"/>
<feBlend mode="normal" in2="BackgroundImageFix" result="effect1_dropShadow_247_7"/>
<feBlend mode="normal" in="SourceGraphic" in2="effect1_dropShadow_247_7" result="shape"/>
</filter>
<filter id="filter1_d_247_7" x="0" y="0" width="149" height="67" filterUnits="userSpaceOnUse" color-interpolation-filters="sRGB">
<feFlood flood-opacity="0" result="BackgroundImageFix"/>
<feColorMatrix in="SourceAlpha" type="matrix" values="0 0 0 0 0 0 0 0 0 0 0 0 0 0 0 0 0 0 127 0" result="hardAlpha"/>
<feMorphology radius="5" operator="dilate" in="SourceAlpha" result="effect1_dropShadow_247_7"/>
<feOffset/>
<feGaussianBlur stdDeviation="5"/>
<feComposite in2="hardAlpha" operator="out"/>
<feColorMatrix type="matrix" values="0 0 0 0 0 0 0 0 0 0 0 0 0 0 0 0 0 0 0.01 0"/>
<feBlend mode="normal" in2="BackgroundImageFix" result="effect1_dropShadow_247_7"/>
<feBlend mode="normal" in="SourceGraphic" in2="effect1_dropShadow_247_7" result="shape"/>
</filter>
<filter id="filter2_d_247_7" x="33" y="6" width="107" height="40" filterUnits="userSpaceOnUse" color-interpolation-filters="sRGB">
<feFlood flood-opacity="0" result="BackgroundImageFix"/>
<feColorMatrix in="SourceAlpha" type="matrix" values="0 0 0 0 0 0 0 0 0 0 0 0 0 0 0 0 0 0 127 0" result="hardAlpha"/>
<feMorphology radius="5" operator="dilate" in="SourceAlpha" result="effect1_dropShadow_247_7"/>
<feOffset/>
<feGaussianBlur stdDeviation="5"/>
<feComposite in2="hardAlpha" operator="out"/>
<feColorMatrix type="matrix" values="0 0 0 0 0 0 0 0 0 0 0 0 0 0 0 0 0 0 0.01 0"/>
<feBlend mode="normal" in2="BackgroundImageFix" result="effect1_dropShadow_247_7"/>
<feBlend mode="normal" in="SourceGraphic" in2="effect1_dropShadow_247_7" result="shape"/>
</filter>
<filter id="filter3_d_247_7" x="33" y="21" width="78" height="39" filterUnits="userSpaceOnUse" color-interpolation-filters="sRGB">
<feFlood flood-opacity="0" result="BackgroundImageFix"/>
<feColorMatrix in="SourceAlpha" type="matrix" values="0 0 0 0 0 0 0 0 0 0 0 0 0 0 0 0 0 0 127 0" result="hardAlpha"/>
<feMorphology radius="5" operator="dilate" in="SourceAlpha" result="effect1_dropShadow_247_7"/>
<feOffset/>
<feGaussianBlur stdDeviation="5"/>
<feComposite in2="hardAlpha" operator="out"/>
<feColorMatrix type="matrix" values="0 0 0 0 0 0 0 0 0 0 0 0 0 0 0 0 0 0 0.01 0"/>
<feBlend mode="normal" in2="BackgroundImageFix" result="effect1_dropShadow_247_7"/>
<feBlend mode="normal" in="SourceGraphic" in2="effect1_dropShadow_247_7" result="shape"/>
</filter>
<filter id="filter4_d_247_7" x="11" y="12" width="43" height="43" filterUnits="userSpaceOnUse" color-interpolation-filters="sRGB">
<feFlood flood-opacity="0" result="BackgroundImageFix"/>
<feColorMatrix in="SourceAlpha" type="matrix" values="0 0 0 0 0 0 0 0 0 0 0 0 0 0 0 0 0 0 127 0" result="hardAlpha"/>
<feMorphology radius="5" operator="dilate" in="SourceAlpha" result="effect1_dropShadow_247_7"/>
<feOffset/>
<feGaussianBlur stdDeviation="5"/>
<feComposite in2="hardAlpha" operator="out"/>
<feColorMatrix type="matrix" values="0 0 0 0 0 0 0 0 0 0 0 0 0 0 0 0 0 0 0.01 0"/>
<feBlend mode="normal" in2="BackgroundImageFix" result="effect1_dropShadow_247_7"/>
<feBlend mode="normal" in="SourceGraphic" in2="effect1_dropShadow_247_7" result="shape"/>
</filter>
<filter id="filter5_d_247_7" x="8" y="9" width="49" height="49" filterUnits="userSpaceOnUse" color-interpolation-filters="sRGB">
<feFlood flood-opacity="0" result="BackgroundImageFix"/>
<feColorMatrix in="SourceAlpha" type="matrix" values="0 0 0 0 0 0 0 0 0 0 0 0 0 0 0 0 0 0 127 0" result="hardAlpha"/>
<feMorphology radius="5" operator="dilate" in="SourceAlpha" result="effect1_dropShadow_247_7"/>
<feOffset/>
<feGaussianBlur stdDeviation="5"/>
<feComposite in2="hardAlpha" operator="out"/>
<feColorMatrix type="matrix" values="0 0 0 0 0 0 0 0 0 0 0 0 0 0 0 0 0 0 0.01 0"/>
<feBlend mode="normal" in2="BackgroundImageFix" result="effect1_dropShadow_247_7"/>
<feBlend mode="normal" in="SourceGraphic" in2="effect1_dropShadow_247_7" result="shape"/>
</filter>
<filter id="filter6_d_247_7" x="23" y="28" width="149" height="67" filterUnits="userSpaceOnUse" color-interpolation-filters="sRGB">
<feFlood flood-opacity="0" result="BackgroundImageFix"/>
<feColorMatrix in="SourceAlpha" type="matrix" values="0 0 0 0 0 0 0 0 0 0 0 0 0 0 0 0 0 0 127 0" result="hardAlpha"/>
<feMorphology radius="5" operator="dilate" in="SourceAlpha" result="effect1_dropShadow_247_7"/>
<feOffset/>
<feGaussianBlur stdDeviation="5"/>
<feComposite in2="hardAlpha" operator="out"/>
<feColorMatrix type="matrix" values="0 0 0 0 0 0 0 0 0 0 0 0 0 0 0 0 0 0 0.01 0"/>
<feBlend mode="normal" in2="BackgroundImageFix" result="effect1_dropShadow_247_7"/>
<feBlend mode="normal" in="SourceGraphic" in2="effect1_dropShadow_247_7" result="shape"/>
</filter>
<filter id="filter7_d_247_7" x="56" y="34" width="107" height="40" filterUnits="userSpaceOnUse" color-interpolation-filters="sRGB">
<feFlood flood-opacity="0" result="BackgroundImageFix"/>
<feColorMatrix in="SourceAlpha" type="matrix" values="0 0 0 0 0 0 0 0 0 0 0 0 0 0 0 0 0 0 127 0" result="hardAlpha"/>
<feMorphology radius="5" operator="dilate" in="SourceAlpha" result="effect1_dropShadow_247_7"/>
<feOffset/>
<feGaussianBlur stdDeviation="5"/>
<feComposite in2="hardAlpha" operator="out"/>
<feColorMatrix type="matrix" values="0 0 0 0 0 0 0 0 0 0 0 0 0 0 0 0 0 0 0.01 0"/>
<feBlend mode="normal" in2="BackgroundImageFix" result="effect1_dropShadow_247_7"/>
<feBlend mode="normal" in="SourceGraphic" in2="effect1_dropShadow_247_7" result="shape"/>
</filter>
<filter id="filter8_d_247_7" x="56" y="49" width="78" height="39" filterUnits="userSpaceOnUse" color-interpolation-filters="sRGB">
<feFlood flood-opacity="0" result="BackgroundImageFix"/>
<feColorMatrix in="SourceAlpha" type="matrix" values="0 0 0 0 0 0 0 0 0 0 0 0 0 0 0 0 0 0 127 0" result="hardAlpha"/>
<feMorphology radius="5" operator="dilate" in="SourceAlpha" result="effect1_dropShadow_247_7"/>
<feOffset/>
<feGaussianBlur stdDeviation="5"/>
<feComposite in2="hardAlpha" operator="out"/>
<feColorMatrix type="matrix" values="0 0 0 0 0 0 0 0 0 0 0 0 0 0 0 0 0 0 0.01 0"/>
<feBlend mode="normal" in2="BackgroundImageFix" result="effect1_dropShadow_247_7"/>
<feBlend mode="normal" in="SourceGraphic" in2="effect1_dropShadow_247_7" result="shape"/>
</filter>
<filter id="filter9_d_247_7" x="34" y="40" width="43" height="43" filterUnits="userSpaceOnUse" color-interpolation-filters="sRGB">
<feFlood flood-opacity="0" result="BackgroundImageFix"/>
<feColorMatrix in="SourceAlpha" type="matrix" values="0 0 0 0 0 0 0 0 0 0 0 0 0 0 0 0 0 0 127 0" result="hardAlpha"/>
<feMorphology radius="5" operator="dilate" in="SourceAlpha" result="effect1_dropShadow_247_7"/>
<feOffset/>
<feGaussianBlur stdDeviation="5"/>
<feComposite in2="hardAlpha" operator="out"/>
<feColorMatrix type="matrix" values="0 0 0 0 0 0 0 0 0 0 0 0 0 0 0 0 0 0 0.01 0"/>
<feBlend mode="normal" in2="BackgroundImageFix" result="effect1_dropShadow_247_7"/>
<feBlend mode="normal" in="SourceGraphic" in2="effect1_dropShadow_247_7" result="shape"/>
</filter>
<filter id="filter10_d_247_7" x="31" y="37" width="49" height="49" filterUnits="userSpaceOnUse" color-interpolation-filters="sRGB">
<feFlood flood-opacity="0" result="BackgroundImageFix"/>
<feColorMatrix in="SourceAlpha" type="matrix" values="0 0 0 0 0 0 0 0 0 0 0 0 0 0 0 0 0 0 127 0" result="hardAlpha"/>
<feMorphology radius="5" operator="dilate" in="SourceAlpha" result="effect1_dropShadow_247_7"/>
<feOffset/>
<feGaussianBlur stdDeviation="5"/>
<feComposite in2="hardAlpha" operator="out"/>
<feColorMatrix type="matrix" values="0 0 0 0 0 0 0 0 0 0 0 0 0 0 0 0 0 0 0.01 0"/>
<feBlend mode="normal" in2="BackgroundImageFix" result="effect1_dropShadow_247_7"/>
<feBlend mode="normal" in="SourceGraphic" in2="effect1_dropShadow_247_7" result="shape"/>
</filter>
<linearGradient id="paint0_linear_247_7" x1="189" y1="71.0002" x2="615.138" y2="71.0002" gradientUnits="userSpaceOnUse">
<stop stop-color="#F5F5F5"/>
<stop offset="1" stop-color="#F1F1F1"/>
</linearGradient>
<linearGradient id="paint1_linear_247_7" x1="74.5" y1="15" x2="74.5" y2="52" gradientUnits="userSpaceOnUse">
<stop stop-color="#F1F1F1"/>
<stop offset="1" stop-color="#EFEFEF"/>
</linearGradient>
<radialGradient id="paint2_radial_247_7" cx="0" cy="0" r="1" gradientUnits="userSpaceOnUse" gradientTransform="translate(32.12 24) rotate(90) scale(22.8)">
<stop stop-color="#E09FFF"/>
<stop offset="1" stop-color="#BFC9FF"/>
</radialGradient>
<linearGradient id="paint3_linear_247_7" x1="97.5" y1="43" x2="97.5" y2="80" gradientUnits="userSpaceOnUse">
<stop stop-color="#F1F1F1"/>
<stop offset="1" stop-color="#EFEFEF"/>
</linearGradient>
<radialGradient id="paint4_radial_247_7" cx="0" cy="0" r="1" gradientUnits="userSpaceOnUse" gradientTransform="translate(55.12 52) rotate(90) scale(22.8)">
<stop stop-color="#E09FFF"/>
<stop offset="1" stop-color="#BFC9FF"/>
</radialGradient>
</defs>
</svg>
