<svg width="25" height="25" viewBox="0 0 25 25" fill="none" xmlns="http://www.w3.org/2000/svg">
<path d="M2.34375 16.4062L7.71771 11.0323C7.93535 10.8147 8.19372 10.642 8.47808 10.5242C8.76244 10.4064 9.06721 10.3458 9.375 10.3458C9.68279 10.3458 9.98756 10.4064 10.2719 10.5242C10.5563 10.642 10.8147 10.8147 11.0323 11.0323L16.4062 16.4062M14.8437 14.8437L16.3115 13.376C16.5291 13.1584 16.7875 12.9858 17.0718 12.868C17.3562 12.7502 17.661 12.6896 17.9687 12.6896C18.2765 12.6896 18.5813 12.7502 18.8657 12.868C19.15 12.9858 19.4084 13.1584 19.626 13.376L22.6562 16.4062M3.90625 20.3125H21.0937C21.5082 20.3125 21.9056 20.1479 22.1986 19.8549C22.4916 19.5618 22.6562 19.1644 22.6562 18.75V6.25C22.6562 5.8356 22.4916 5.43817 22.1986 5.14515C21.9056 4.85212 21.5082 4.6875 21.0937 4.6875H3.90625C3.49185 4.6875 3.09442 4.85212 2.8014 5.14515C2.50837 5.43817 2.34375 5.8356 2.34375 6.25V18.75C2.34375 19.1644 2.50837 19.5618 2.8014 19.8549C3.09442 20.1479 3.49185 20.3125 3.90625 20.3125ZM14.8437 8.59375H14.8521V8.60208H14.8437V8.59375ZM15.2344 8.59375C15.2344 8.69735 15.1932 8.79671 15.12 8.86996C15.0467 8.94322 14.9473 8.98437 14.8437 8.98437C14.7401 8.98437 14.6408 8.94322 14.5675 8.86996C14.4943 8.79671 14.4531 8.69735 14.4531 8.59375C14.4531 8.49015 14.4943 8.39079 14.5675 8.31754C14.6408 8.24428 14.7401 8.20312 14.8437 8.20312C14.9473 8.20312 15.0467 8.24428 15.12 8.31754C15.1932 8.39079 15.2344 8.49015 15.2344 8.59375V8.59375Z" stroke="#9AA7B6" stroke-width="1.5625" stroke-linecap="round" stroke-linejoin="round"/>
</svg>
