<svg width="16" height="17" viewBox="0 0 16 17" fill="none" xmlns="http://www.w3.org/2000/svg">
<path fill-rule="evenodd" clip-rule="evenodd" d="M1.64601 7.06138C1.69245 7.0119 1.74763 6.97265 1.80838 6.94587C1.86912 6.91909 1.93424 6.9053 2.00001 6.9053C2.06578 6.9053 2.1309 6.91909 2.19164 6.94587C2.25239 6.97265 2.30756 7.0119 2.35401 7.06138L8.00001 13.0613L13.646 7.06138C13.7399 6.96162 13.8672 6.90558 14 6.90558C14.1328 6.90558 14.2601 6.96162 14.354 7.06138C14.4479 7.16113 14.5006 7.29643 14.5006 7.4375C14.5006 7.57858 14.4479 7.71387 14.354 7.81363L8.35401 14.1886C8.30756 14.2381 8.25239 14.2774 8.19164 14.3041C8.1309 14.3309 8.06578 14.3447 8.00001 14.3447C7.93424 14.3447 7.86912 14.3309 7.80838 14.3041C7.74763 14.2774 7.69245 14.2381 7.64601 14.1886L1.64601 7.81363C1.59945 7.76428 1.5625 7.70566 1.5373 7.64111C1.51209 7.57657 1.49911 7.50738 1.49911 7.4375C1.49911 7.36763 1.51209 7.29843 1.5373 7.23389C1.5625 7.16935 1.59945 7.11073 1.64601 7.06138V7.06138Z" fill="#C1C3C7"/>
<path fill-rule="evenodd" clip-rule="evenodd" d="M1.64601 2.81137C1.69245 2.7619 1.74763 2.72265 1.80838 2.69587C1.86912 2.66909 1.93424 2.6553 2.00001 2.6553C2.06578 2.6553 2.1309 2.66909 2.19164 2.69587C2.25239 2.72265 2.30756 2.7619 2.35401 2.81137L8.00001 8.81131L13.646 2.81137C13.6925 2.76198 13.7477 2.7228 13.8084 2.69607C13.8692 2.66934 13.9343 2.65558 14 2.65558C14.0658 2.65558 14.1309 2.66934 14.1916 2.69607C14.2523 2.7228 14.3075 2.76198 14.354 2.81137C14.4005 2.86077 14.4374 2.91941 14.4625 2.98394C14.4877 3.04848 14.5006 3.11765 14.5006 3.1875C14.5006 3.25735 14.4877 3.32652 14.4625 3.39106C14.4374 3.45559 14.4005 3.51423 14.354 3.56362L8.35401 9.93862C8.30756 9.9881 8.25239 10.0273 8.19164 10.0541C8.1309 10.0809 8.06578 10.0947 8.00001 10.0947C7.93424 10.0947 7.86912 10.0809 7.80838 10.0541C7.74763 10.0273 7.69245 9.9881 7.64601 9.93862L1.64601 3.56362C1.59945 3.51428 1.5625 3.45565 1.5373 3.39111C1.51209 3.32657 1.49911 3.25738 1.49911 3.1875C1.49911 3.11762 1.51209 3.04843 1.5373 2.98389C1.5625 2.91935 1.59945 2.86072 1.64601 2.81137V2.81137Z" fill="#C1C3C7"/>
</svg>
