<svg width="18" height="18" viewBox="0 0 18 18" fill="none" xmlns="http://www.w3.org/2000/svg">
<path d="M9 1.46252C4.86 1.46252 1.5 4.82252 1.5 8.96252C1.5 13.1025 4.86 16.4625 9 16.4625H12.75V14.9625H9C5.745 14.9625 3 12.2175 3 8.96252C3 5.70752 5.745 2.96252 9 2.96252C12.255 2.96252 15 5.70752 15 8.96252V10.035C15 10.6275 14.4675 11.2125 13.875 11.2125C13.2825 11.2125 12.75 10.6275 12.75 10.035V8.96252C12.75 6.89252 11.07 5.21252 9 5.21252C6.93 5.21252 5.25 6.89252 5.25 8.96252C5.25 11.0325 6.93 12.7125 9 12.7125C10.035 12.7125 10.98 12.2925 11.655 11.61C12.1425 12.2775 12.9825 12.7125 13.875 12.7125C15.3525 12.7125 16.5 11.5125 16.5 10.035V8.96252C16.5 4.82252 13.14 1.46252 9 1.46252ZM9 11.2125C7.755 11.2125 6.75 10.2075 6.75 8.96252C6.75 7.71752 7.755 6.71252 9 6.71252C10.245 6.71252 11.25 7.71752 11.25 8.96252C11.25 10.2075 10.245 11.2125 9 11.2125Z" fill="#C1C3C7"/>
</svg>
