<svg width="207" height="207" viewBox="0 0 207 207" fill="none" xmlns="http://www.w3.org/2000/svg">
<g opacity="0.8" clip-path="url(#clip0_3_23)">
<path d="M207 103.402C207.014 115.177 205.01 126.867 201.075 137.966C201.058 138.018 201.041 138.065 201.021 138.116V138.119C198.075 146.376 194.084 154.224 189.147 161.471C188.291 162.734 187.405 163.976 186.489 165.197C185.481 166.548 184.441 167.872 183.37 169.169C182.381 170.365 181.367 171.538 180.326 172.688C179.089 174.059 177.816 175.394 176.506 176.694C173.422 179.763 170.147 182.634 166.701 185.291C166.097 185.76 165.485 186.221 164.867 186.673C163.429 187.734 161.962 188.758 160.467 189.743C157.177 191.916 153.765 193.897 150.247 195.677C149.64 195.987 149.028 196.291 148.413 196.586C146.036 197.733 143.61 198.788 141.136 199.752C140.431 200.03 139.723 200.297 139.007 200.555C138.887 200.602 138.766 200.646 138.643 200.688C130.16 203.747 121.311 205.677 112.323 206.43C111.699 206.487 111.074 206.534 110.447 206.573C109.784 206.619 109.119 206.657 108.454 206.686C107.928 206.713 107.404 206.732 106.875 206.747C106.767 206.752 106.657 206.757 106.548 206.757C105.838 206.779 105.125 206.793 104.41 206.799C104.107 206.801 103.805 206.803 103.5 206.803C103.357 206.803 103.215 206.803 103.072 206.801C101.01 206.794 98.9625 206.727 96.931 206.6C96.8892 206.597 96.8475 206.592 96.8057 206.592C96.078 206.543 95.3527 206.492 94.6299 206.428C92.056 206.212 89.5098 205.9 86.9916 205.494C86.4114 205.404 85.8328 205.305 85.2559 205.2C82.7508 204.758 80.2784 204.225 77.8388 203.601C77.1136 203.417 76.3925 203.224 75.6754 203.024C65.7065 200.249 56.2134 195.988 47.5165 190.384C46.0218 189.424 44.555 188.425 43.116 187.388C42.9389 187.265 42.7644 187.138 42.5898 187.01C39.0943 184.464 35.7616 181.702 32.6111 178.74C31.1188 177.34 29.67 175.896 28.2646 174.408C10.0789 155.235 -0.0395954 129.815 -3.70338e-05 103.402C-3.70338e-05 46.295 46.339 0 103.5 0C160.661 0 207 46.295 207 103.402Z" fill="#F2F2F2"/>
<path d="M121.752 50.9916C121.753 52.8739 121.291 54.7276 120.407 56.39C119.523 58.0524 118.245 59.4726 116.683 60.526C115.122 61.5793 113.325 62.2337 111.452 62.4315C109.578 62.6294 107.684 62.3647 105.937 61.6607C104.19 60.9568 102.642 59.835 101.43 58.394C100.218 56.9529 99.3781 55.2367 98.9849 53.3958C98.5917 51.5549 98.6568 49.6458 99.1746 47.8359C99.6923 46.0261 100.647 44.3709 101.954 43.0156C101.973 42.9973 101.991 42.9789 102.01 42.9605C102.102 42.8639 102.194 42.7673 102.29 42.6752C102.291 42.6753 102.292 42.6751 102.292 42.6749C102.293 42.6747 102.293 42.6744 102.294 42.6739C102.294 42.6735 102.294 42.673 102.295 42.6724C102.295 42.6719 102.295 42.6712 102.295 42.6706C102.415 42.5603 102.534 42.4499 102.659 42.3441C104.322 40.8873 106.37 39.9403 108.558 39.6164C110.746 39.2925 112.981 39.6056 114.996 40.518C117.011 41.4304 118.719 42.9036 119.917 44.7611C121.116 46.6186 121.753 48.7818 121.752 50.9916V50.9916Z" fill="#2F2E41"/>
<path d="M114.231 60.4707C118 56.705 118 50.5995 114.231 46.8338C110.462 43.0681 104.35 43.0681 100.581 46.8338C96.8117 50.5995 96.8117 56.705 100.581 60.4707C104.35 64.2364 110.462 64.2364 114.231 60.4707Z" fill="#9E616A"/>
<path d="M114.302 44.3792C112.807 42.9814 110.947 42.0333 108.937 41.644C106.926 41.2548 104.847 41.44 102.937 42.1786C102.88 42.2007 102.824 42.2252 102.767 42.2523C102.765 42.2523 102.765 42.2547 102.762 42.2547C102.578 42.3309 102.391 42.4095 102.212 42.4954L102.101 42.5495V42.5642C102.081 42.5789 102.059 42.5961 102.037 42.6109C101.992 42.653 101.937 42.6833 101.877 42.6993C100.021 42.7238 98.5094 43.3526 97.3883 44.5684C95.8912 46.1894 95.188 48.8101 95.4044 51.949L95.4093 52.0447L95.4929 52.0988C96.2845 52.5924 97.0343 53.0272 97.7571 53.4079C98.1849 53.6363 98.6003 53.8451 99.0134 54.0366C99.0625 54.0587 99.1117 54.0833 99.1609 54.1054C103.34 56.0334 107.163 56.3822 110.836 55.1615L110.905 55.1394L112.466 52.5261C112.627 53.419 113.057 54.2414 113.698 54.8836C114.339 55.5257 115.162 55.9569 116.055 56.1194L116.704 56.2348L117.656 56.4019L117.695 56.2226C118.639 51.9735 117.275 47.216 114.302 44.3792Z" fill="#2F2E41"/>
<path d="M138.013 64.6178C134.729 62.9241 138.953 56.7771 138.104 53.1831C137.255 49.5891 131.143 48.4331 130.753 44.761C130.364 41.0888 129.448 37.3014 127.022 34.5149C125.472 32.7344 123.189 31.4199 120.837 31.6429C120.042 31.7184 119.272 31.9643 118.58 32.3638C117.888 32.7633 117.291 33.3072 116.828 33.9582C116.366 34.6093 116.049 35.3523 115.9 36.1366C115.75 36.9209 115.772 37.7282 115.963 38.5034C115.294 37.5557 113.561 37.7611 113.133 38.839C112.751 39.7973 113.594 40.9581 114.585 41.0429C115.882 42.6431 117.367 44.3413 119.399 44.6641C120.053 44.7681 120.789 44.6919 121.267 44.2333C121.745 43.7747 121.782 42.8577 121.215 42.515C123.769 43.5284 125.266 46.2866 125.645 49.0055C126.024 51.7243 125.5 54.4751 125.154 57.1984C124.809 59.9216 124.66 62.7863 125.729 65.3152C126.991 68.303 129.899 70.4445 133.072 71.1313C136.244 71.818 139.623 71.1468 142.495 69.6346C145.367 68.1223 147.762 65.8137 149.719 63.2254C146.348 65.6161 141.686 66.5118 138.013 64.6178Z" fill="#2F2E41"/>
<path d="M100.696 105.122L94.0289 150.603L130.421 147.863L119.528 103.12L100.696 105.122Z" fill="#FFB8B8"/>
<path d="M138.766 200.224C138.734 200.381 138.693 200.535 138.643 200.688C134.443 202.205 130.148 203.445 125.786 204.399C124.866 201.378 123.104 195.658 121.56 190.979C120.298 187.16 119.185 184.035 118.796 183.645C117.717 182.572 118.796 181.14 118.796 181.14L114.187 166.823L112.092 160.319L111.374 173.983L110.332 193.774L110.302 194.329C110.302 194.329 108.867 198.625 109.585 199.342C110.302 200.059 108.867 202.925 108.867 202.925L108.454 206.686C107.928 206.713 107.404 206.732 106.875 206.747L106.696 206.804L106.548 206.757C105.838 206.779 105.125 206.793 104.41 206.799C104.107 206.801 103.805 206.804 103.5 206.804C103.357 206.804 103.215 206.804 103.072 206.801C101.01 206.794 98.9626 206.727 96.9311 206.6L95.6699 196.345L94.3669 185.75C94.3669 185.75 95.8002 182.889 94.3669 181.457C93.504 180.595 93.9367 179.342 94.421 178.482C94.1211 177.154 93.7105 175.11 93.1574 172.084C93.1377 171.983 93.1205 171.88 93.1008 171.777C92.9263 170.817 92.7698 169.875 92.6313 168.953C92.3854 167.329 92.1937 165.769 92.0462 164.276C91.5459 159.439 91.4768 154.568 91.8397 149.719C91.9773 147.995 92.1494 146.732 92.2625 146.003C92.2723 145.934 92.3781 145.548 92.5501 144.939C92.8206 143.964 93.2656 142.417 93.7646 140.685C94.0301 139.767 94.3104 138.797 94.5882 137.831C95.0725 136.159 95.5543 134.501 95.9428 133.16V133.152C96.2845 131.976 96.5574 131.048 96.7 130.561C96.7688 130.323 96.8057 130.193 96.8057 130.193C96.8057 130.193 96.8819 130.176 97.0269 130.144C97.4768 130.041 98.588 129.793 100.127 129.461C101.732 129.122 103.8 128.692 106.072 128.255C108.016 127.882 110.111 127.501 112.193 127.16C112.94 127.039 113.688 126.921 114.425 126.811C118.981 126.133 123.163 125.747 125.144 126.187C125.281 126.216 125.417 126.253 125.55 126.298C125.684 126.342 125.813 126.4 125.936 126.472C125.997 126.509 126.592 128.827 127.352 131.848C127.359 131.878 127.366 131.91 127.374 131.939C127.602 132.853 127.846 133.825 128.094 134.82C128.347 135.835 128.603 136.869 128.854 137.876C129.599 140.867 130.287 143.635 130.641 144.991C130.776 145.517 130.865 145.828 130.884 145.863C131.715 147.246 132.394 150.635 132.945 154.887C133.436 158.681 133.827 163.164 134.13 167.518C134.28 169.672 134.407 171.797 134.516 173.791C134.882 180.501 135.029 185.74 135.029 185.74C135.029 185.74 135.578 190.107 136.667 192.168C136.801 192.434 136.972 192.679 137.176 192.897C137.901 193.622 137.984 194.25 137.889 194.697C137.847 194.908 137.759 195.108 137.633 195.282C137.604 195.325 137.572 195.365 137.537 195.402C137.443 195.847 137.46 196.307 137.585 196.744C137.71 197.181 137.94 197.58 138.255 197.908C138.951 198.608 138.894 199.61 138.766 200.224Z" fill="#2F2E41"/>
<path d="M126.845 90.5343C126.803 90.2248 126.759 89.9129 126.713 89.5985C126.685 89.3971 126.654 89.1957 126.624 88.9967C126.312 86.9877 127.612 85.2684 125.928 83.8782C125.535 83.5581 125.214 83.1579 124.987 82.7042L124.601 81.9281L123.89 80.4888L122.337 77.3597L122.069 76.8219C121.993 76.6691 121.906 76.5221 121.808 76.3822C121.517 75.9609 121.139 75.6073 120.699 75.3457L116.839 73.0468C116.243 72.6933 115.763 72.1734 115.458 71.5511L115.362 71.3546C114.937 70.4827 114.175 68.3974 113.272 67.4911L113.27 67.4887C113.073 67.2641 112.806 67.1126 112.513 67.0589L108.67 66.6782C108.056 66.6158 107.435 66.7141 106.87 66.9634C106.305 67.2127 105.815 67.6044 105.447 68.1002L105.341 68.5792L104.724 71.3865L104.69 71.3939C104.508 71.4356 104.326 71.4774 104.147 71.529C100.161 72.617 98.4996 86.5357 98.4996 86.5357C98.4996 86.5357 95.7092 91.136 96.8057 93.9826L98.7626 98.5731C98.7778 98.6078 98.7893 98.644 98.7971 98.6811C98.974 99.1808 99.0362 99.7138 98.979 100.241L98.9814 100.42L98.9863 100.815L99.0011 101.83L99.0478 105.195L99.1068 109.407L99.1584 112.995L99.1756 113.951L95.9526 127.963C95.8999 128.423 95.9385 128.889 96.0663 129.335C96.1941 129.78 96.4086 130.196 96.6975 130.559L96.7 130.561C96.7708 130.652 96.8463 130.739 96.9262 130.822L96.9286 130.824C97.0048 130.903 97.0835 130.974 97.1646 131.045C97.5527 131.384 98.0104 131.635 98.5056 131.779C99.0008 131.922 99.5215 131.956 100.031 131.878L100.461 131.811H100.464L106.708 130.876H106.713L107.436 130.768H107.441L114.43 129.719H114.435L115.632 129.537C115.728 129.525 115.822 129.513 115.918 129.505L122.317 129.066C122.464 129.056 122.61 129.037 122.754 129.009H122.757C123.32 128.898 123.847 128.653 124.295 128.295C124.743 127.937 125.098 127.477 125.331 126.953C125.428 126.743 125.501 126.523 125.55 126.298C125.605 126.053 125.636 125.804 125.641 125.553L125.712 119.531L125.955 100.069C125.96 99.4195 126.146 98.7843 126.491 98.2341C127.379 96.8194 127.278 93.7886 126.845 90.5343Z" fill="#BFDCFF"/>
<path d="M116.116 142.513C116.026 142.017 116.046 141.507 116.175 141.019C116.303 140.532 116.537 140.078 116.86 139.69C117.184 139.303 117.588 138.991 118.045 138.776C118.502 138.561 119 138.449 119.505 138.448L123.497 126.853L127.39 131.9L123.002 142.137C122.948 142.985 122.585 143.783 121.981 144.381C121.377 144.979 120.575 145.335 119.726 145.381C118.877 145.428 118.041 145.161 117.376 144.633C116.71 144.104 116.262 143.35 116.116 142.513H116.116Z" fill="#9E616A"/>
<path d="M131.349 118.119L130.452 120.378L129.198 134.356C128.809 134.454 128.436 134.61 128.094 134.82C127.351 135.279 126.785 135.976 126.488 136.798C126.191 137.619 126.181 138.517 126.459 139.344L126.828 140.45L124.087 139.607L119.581 138.224L114.268 136.593L115.168 133.678C115.376 133.008 115.418 132.298 115.29 131.608C115.163 130.918 114.869 130.27 114.435 129.719C114.328 129.582 114.212 129.451 114.088 129.328L114.425 126.811L114.624 125.315L112.193 127.16L107.438 130.768H107.436L106.807 131.247C106.807 131.247 106.772 131.119 106.708 130.876C106.588 130.407 106.362 129.508 106.072 128.255C104.635 122.013 103.577 115.69 102.903 109.321C102.755 107.887 102.627 106.418 102.524 104.927C102.418 103.392 102.34 101.835 102.298 100.268C101.944 87.5133 103.906 74.1423 112.105 67.3045C112.501 67.3072 112.895 67.3702 113.272 67.4911C116.591 68.5104 120.232 73.4914 122.75 77.0552C123.344 77.8976 123.876 78.659 124.325 79.2706L125.414 80.7516C126.901 82.7752 127.931 85.0974 128.431 87.5575C128.537 88.0782 128.619 88.6054 128.679 89.1392L129.869 100.074V102.891L131.349 118.119Z" fill="#BFDCFF"/>
<path d="M5.99606 137.72C8.13177 140.248 10.4418 142.624 12.9092 144.831L194.238 145.076C196.706 142.87 199.016 140.494 201.151 137.966L5.99606 137.72Z" fill="#CCCCCC"/>
<path d="M104.41 206.799C104.107 206.801 103.805 206.804 103.5 206.804C103.357 206.804 103.215 206.804 103.072 206.801C101.01 206.794 98.9626 206.727 96.9311 206.6L96.9802 207L96.8057 206.592L92.9091 197.529L95.6699 196.345L100.734 194.172L102.271 199.45L103.741 204.505L104.179 206.003L104.41 206.799Z" fill="#FFB6B6"/>
<path d="M86.3574 196.277L85.256 205.2C82.7508 204.758 80.2785 204.225 77.8389 203.601V196.279L86.3574 196.277Z" fill="#FFB6B6"/>
<path d="M47.5166 179.831V190.384C46.0218 189.424 44.555 188.425 43.116 187.388V179.831H47.5166Z" fill="#CACACA"/>
<path d="M64.5658 178.072V183.345C64.5655 184.317 64.1793 185.248 63.492 185.935C62.8048 186.622 61.8726 187.009 60.9003 187.01H42.5899C39.0944 184.464 35.7616 181.702 32.6111 178.74C31.1188 177.34 29.67 175.896 28.2646 174.408H60.9003C61.8725 174.409 62.8044 174.795 63.4916 175.482C64.1789 176.169 64.5652 177.101 64.5658 178.072Z" fill="#3F3D56"/>
<path d="M107.478 206.555L106.875 206.747L106.696 206.804L106.548 206.757C105.838 206.779 105.125 206.793 104.41 206.799C104.107 206.801 103.805 206.804 103.5 206.804C103.357 206.804 103.215 206.804 103.072 206.801C101.01 206.794 98.9626 206.727 96.9311 206.6L96.9802 207L96.8057 206.592C96.078 206.543 95.3527 206.492 94.63 206.428L88.9092 196.856L77.1358 177.161L75.7713 174.879C75.7713 174.879 71.1175 176.255 64.5314 177.573C59.5678 178.571 53.5078 179.531 47.5166 179.845C46.0391 179.924 44.5665 179.963 43.116 179.951C39.3669 179.926 35.7653 179.575 32.6111 178.74C31.1188 177.34 29.67 175.896 28.2646 174.408C25.8688 171.877 23.6025 169.226 21.4744 166.467C21.4457 165.454 21.4975 164.441 21.6293 163.436C21.6514 163.269 21.6735 163.1 21.7006 162.928L22.3717 151.541L27.3574 150.883L34.9442 149.881L43.1627 148.795L44.0674 155.874C44.0674 155.874 50.4667 155.55 58.5746 155.658C71.5969 155.835 89.0223 157.131 91.3824 162.697C91.6037 163.22 91.8249 163.748 92.0462 164.276C96.6287 175.243 100.838 186.926 103.697 195.228C104.242 196.81 104.737 198.266 105.177 199.573C106.63 203.888 107.478 206.555 107.478 206.555Z" fill="#2F2E41"/>
<path d="M93.5384 168.972C93.418 170.014 93.291 171.051 93.1574 172.084C91.9773 181.223 90.3523 189.952 88.9092 196.856C88.2037 200.226 87.5399 203.159 86.9916 205.494C86.4114 205.404 85.8329 205.305 85.256 205.2C82.7508 204.758 80.2785 204.225 77.8389 203.601C77.1137 203.417 76.3925 203.224 75.6755 203.024L77.1358 177.161L77.6176 168.606L92.6313 168.953L93.5384 168.972Z" fill="#2F2E41"/>
<path d="M117.679 128.97C118.305 128.62 119 128.412 119.715 128.36C120.431 128.308 121.148 128.414 121.818 128.669C122.488 128.924 123.094 129.323 123.593 129.838C124.092 130.352 124.472 130.97 124.707 131.647L142.138 131.668L137.142 139.216L121.355 138.039C120.191 138.357 118.95 138.237 117.868 137.702C116.786 137.167 115.938 136.254 115.485 135.136C115.032 134.018 115.005 132.773 115.409 131.636C115.813 130.5 116.621 129.551 117.679 128.97L117.679 128.97Z" fill="#FFB6B6"/>
<path d="M127.182 139.178L158.576 142.294L158.659 142.188C158.817 141.986 174.532 121.889 177.172 117.106C178.796 114.231 179.388 110.889 178.848 107.632L178.83 107.553L178.768 107.5C177.488 106.428 175.88 105.824 174.21 105.787C172.54 105.751 170.907 106.284 169.581 107.298C163.205 112.232 158.063 118.579 154.563 125.838L152.577 129.969L129.539 130.957L127.182 139.178Z" fill="#BFDCFF"/>
<path d="M115.074 195.81L110.448 206.573C109.784 206.619 109.119 206.657 108.454 206.686C107.928 206.713 107.404 206.732 106.875 206.747L106.696 206.804L106.548 206.757C105.838 206.779 105.125 206.793 104.41 206.799C104.107 206.801 103.805 206.804 103.5 206.804C103.357 206.804 103.215 206.804 103.072 206.801L103.38 205.75L103.741 204.505L105.177 199.573L107.249 192.453L110.332 193.774L115.074 195.81Z" fill="#FFB6B6"/>
<path d="M148.413 196.586C146.036 197.733 143.61 198.788 141.136 199.752L138.717 195.687L146.515 192.266L148.413 196.586Z" fill="#FFB6B6"/>
<path d="M164.867 178.111V186.673C163.429 187.734 161.962 188.758 160.467 189.743V178.111H164.867Z" fill="#CACACA"/>
<path d="M180.326 172.688C179.089 174.059 177.816 175.394 176.506 176.694C173.422 179.763 170.147 182.634 166.701 185.291H147.083C146.562 185.291 146.047 185.18 145.573 184.965C145.099 184.75 144.675 184.437 144.332 184.045L144.33 184.038C143.921 183.577 143.636 183.019 143.504 182.417L143.501 182.412C143.446 182.154 143.418 181.89 143.418 181.626V176.353C143.418 175.382 143.805 174.45 144.492 173.763C145.179 173.076 146.111 172.69 147.083 172.688H180.326Z" fill="#3F3D56"/>
<path d="M188.409 152.106L186.283 161.209C186.491 162.527 186.56 163.864 186.489 165.197C185.481 166.548 184.441 167.872 183.37 169.169C182.381 170.365 181.367 171.538 180.326 172.688C179.089 174.059 177.816 175.394 176.506 176.694C173.093 177.765 169.071 178.202 164.867 178.232C163.417 178.244 161.944 178.205 160.467 178.126C154.476 177.812 148.416 176.851 143.452 175.854C142.139 175.594 140.905 175.329 139.769 175.071C137.618 174.587 135.819 174.135 134.516 173.791C133.048 173.408 132.212 173.16 132.212 173.16L126.629 182.5L121.56 190.979L112.323 206.43C111.699 206.487 111.074 206.534 110.448 206.573C109.784 206.619 109.119 206.657 108.454 206.686C107.928 206.713 107.404 206.732 106.875 206.747L106.696 206.804L106.548 206.757L104.179 206.003L103.38 205.75L100.506 204.836C100.506 204.836 101.147 202.817 102.271 199.45C102.684 198.215 103.161 196.795 103.697 195.228C105.631 189.564 108.314 181.958 111.374 173.983C112.282 171.615 113.221 169.213 114.187 166.823C114.978 164.861 115.785 162.906 116.601 160.978C118.019 157.635 124.874 155.832 132.945 154.886C133.355 154.84 133.768 154.793 134.184 154.749C138.297 154.317 142.66 154.093 146.741 153.99C148.784 153.938 150.756 153.919 152.59 153.916C153.182 153.916 153.759 153.918 154.318 153.921H154.321C155.833 153.929 157.224 153.951 158.448 153.975C158.687 153.98 158.918 153.988 159.144 153.992H159.147C159.299 153.995 159.449 154 159.597 154.002C162.274 154.071 163.916 154.155 163.916 154.155L164.553 149.164L164.683 148.157L164.806 147.199V147.196L164.821 147.076L164.921 147.074L166.692 147.039L181.57 146.749L189.698 146.59L188.409 152.106Z" fill="#2F2E41"/>
<path d="M150.247 195.677C149.64 195.987 149.028 196.291 148.413 196.586C146.036 197.733 143.61 198.788 141.136 199.752C140.431 200.03 139.723 200.297 139.007 200.555C138.928 200.445 138.847 200.334 138.766 200.224C135.354 195.545 131.017 189.37 126.629 182.5C124.793 179.627 122.946 176.63 121.154 173.57L134.13 167.518L135.585 166.84L139.769 175.071L143.501 182.412L144.332 184.045L150.247 195.677Z" fill="#2F2E41"/>
<path d="M169.082 93.3444C175.684 93.3444 181.036 87.9974 181.036 81.4015C181.036 74.8056 175.684 69.4586 169.082 69.4586C162.48 69.4586 157.127 74.8056 157.127 81.4015C157.127 87.9974 162.48 93.3444 169.082 93.3444Z" fill="#FFB6B6"/>
<path d="M168.686 92.8259C171.481 94.1656 174.921 93.7118 177.59 92.1356C180.258 90.5593 182.222 87.9886 183.594 85.2116C184.599 83.1777 185.329 80.8486 184.747 78.6562C184.165 76.4638 181.843 74.6268 179.668 75.2762C181.158 74.0773 180.985 71.605 179.78 70.1195C178.576 68.6341 176.676 67.9198 174.84 67.3814C172.176 66.6001 169.376 66.0486 166.628 66.4483C163.88 66.8479 161.175 68.3342 159.882 70.7893C158.984 71.0203 158.035 70.9474 157.184 70.582C156.332 70.2166 155.626 69.5794 155.176 68.77C154.876 69.5481 154.842 70.403 155.077 71.2026C155.313 72.0022 155.806 72.7018 156.48 73.1933L152.759 71.1761C151.81 72.4899 152.672 74.4937 154.112 75.238C155.553 75.9822 157.293 75.7837 158.865 75.386C160.437 74.9884 158.583 78.3049 160.204 78.3368C161.825 78.3688 163.579 79.2164 164.043 80.7686C164.286 81.5816 164.145 82.4547 164.216 83.3002C164.288 84.1456 164.694 85.0836 165.514 85.3039C166.032 85.443 166.599 85.2587 167.113 85.4132C167.75 85.6047 168.138 86.2855 168.194 86.9477C168.25 87.6099 168.042 88.2629 167.837 88.8951C167.026 91.3934 169.629 89.9931 168.818 92.4913L168.686 92.8259Z" fill="#2F2E41"/>
<path d="M192.141 128.103C192.043 118.239 191.595 111.517 190.814 108.12C188.714 98.9881 179.016 97.3229 177.496 97.1166C177.335 96.6862 177.086 96.2936 176.766 95.9634C176.445 95.6331 176.061 95.3722 175.635 95.1969C175.21 95.0216 174.753 94.9356 174.293 94.9443C173.832 94.953 173.379 95.0562 172.961 95.2475L166.07 98.4011C164.672 99.0429 163.421 99.9649 162.394 101.11C161.368 102.255 160.588 103.598 160.103 105.057L159.08 108.176L158.566 129.11L160.263 137.915L160.265 137.92L161.408 143.851L160.622 145.03L156.13 151.76L156.054 151.878L156.051 151.88L155.855 152.172C156.128 152.322 156.398 152.47 156.664 152.617C157.352 152.995 158.023 153.366 158.677 153.73C158.834 153.818 158.989 153.904 159.144 153.992H159.147C159.245 154.046 159.343 154.101 159.439 154.155C161.893 155.525 164.126 156.795 166.138 157.964C166.419 158.126 166.696 158.288 166.969 158.448C176.262 163.878 180.973 167.204 183.37 169.169C184.441 167.872 185.481 166.548 186.489 165.197C187.404 163.976 188.29 162.735 189.147 161.471C189.297 160.484 189.398 159.497 189.496 158.529C189.614 157.365 189.737 156.159 189.943 154.972C190.034 154.447 189.685 153.948 189.348 153.467C189.036 153.017 188.741 152.595 188.803 152.197C188.867 151.787 189.319 151.34 189.759 150.905C190.238 150.429 190.735 149.937 190.806 149.419C191.003 147.975 191.178 146.526 191.33 145.072C191.581 142.707 191.773 140.334 191.908 137.954C192.097 134.668 192.175 131.384 192.141 128.103Z" fill="#BFDCFF"/>
<path d="M146.636 162.92C146.839 162.233 147.19 161.599 147.664 161.062C148.139 160.525 148.726 160.098 149.383 159.812C150.041 159.526 150.753 159.388 151.47 159.406C152.187 159.425 152.891 159.601 153.532 159.921L166 147.751L167.718 156.636L155.615 166.83C155.005 167.872 154.035 168.653 152.887 169.027C151.739 169.401 150.494 169.342 149.387 168.86C148.28 168.378 147.389 167.507 146.882 166.412C146.375 165.318 146.288 164.075 146.636 162.92L146.636 162.92Z" fill="#FFB6B6"/>
<path d="M160.576 163.571L185.187 143.852L185.172 143.718C185.143 143.463 182.296 118.12 180.831 112.857C179.979 109.668 178.061 106.866 175.394 104.917L175.326 104.872L175.244 104.878C173.579 105.007 172.007 105.7 170.788 106.841C169.57 107.982 168.776 109.504 168.54 111.156C167.44 119.139 168.212 127.267 170.795 134.9L172.269 139.24L156.501 156.05L160.576 163.571Z" fill="#BFDCFF"/>
<path d="M34.5445 93.1301C40.4355 93.1301 45.2112 88.3589 45.2112 82.4734C45.2112 76.588 40.4355 71.8168 34.5445 71.8168C28.6534 71.8168 23.8777 76.588 23.8777 82.4734C23.8777 88.3589 28.6534 93.1301 34.5445 93.1301Z" fill="#A0616A"/>
<path d="M20.2135 163.641L20.1553 163.56C17.0481 159.213 21.7214 148.77 22.4262 147.256C21.5892 146.985 20.8723 146.432 20.3975 145.692C19.9226 144.952 19.7193 144.07 19.8221 143.197L20.126 140.616L20.4427 138.085L18.1737 135.819L18.1673 135.762L16.8616 124.347L14.963 116.766C14.2477 113.9 14.3087 110.895 15.1397 108.061C15.9707 105.226 17.5418 102.663 19.6918 100.635L24.0803 99.9393L29.4136 94.8054H38.0142L40.9632 97.6202C46.761 102.368 48.1373 100.306 54.675 109.243L49.994 121.564L52.6105 139.737L52.612 143.025L53.9748 144.538C54.4657 145.083 54.8224 145.735 55.0165 146.442C55.2106 147.15 55.2367 147.892 55.0928 148.611L54.9135 149.506C55.6062 149.803 56.2175 150.261 56.6963 150.842C57.1751 151.424 57.5074 152.111 57.6653 152.847L58.144 155.079C58.5535 155.619 61.2563 159.219 61.2563 160.203C61.2563 160.351 61.1471 160.494 60.9128 160.652C59.0709 161.898 48.89 164.439 44.3841 162.638C39.5844 160.72 20.5049 163.596 20.3126 163.626L20.2135 163.641Z" fill="#3F3D56"/>
<path d="M14.7945 120.412L23.6636 118.678C26.9436 123.572 28.7045 136.953 28.7045 136.953L38.5103 157.27C39.113 157.635 39.608 158.154 39.9447 158.773C40.2814 159.392 40.4478 160.09 40.4271 160.794C40.4063 161.498 40.1992 162.184 39.8266 162.783C39.4541 163.381 38.9295 163.87 38.3063 164.199C37.6831 164.529 36.9835 164.688 36.2789 164.66C35.5742 164.632 34.8897 164.417 34.2949 164.039C33.7001 163.66 33.2163 163.131 32.8929 162.505C32.5695 161.879 32.4179 161.178 32.4536 160.475L19.6643 136.403L14.7945 120.412Z" fill="#A0616A"/>
<path d="M14.7448 122.515L14.4926 109.345L18.6664 103.767C19.4898 102.675 20.6025 101.834 21.8789 101.341C23.1552 100.847 24.5443 100.72 25.8891 100.974C27.7097 101.33 29.3271 102.364 30.414 103.866C31.501 105.368 31.9765 107.226 31.7444 109.065C31.036 114.642 29.4276 121.62 25.7889 123.199L25.752 123.215L29.5233 136.392L15.5377 138.344L14.7448 122.515Z" fill="#3F3D56"/>
<path d="M67.4198 121.351C67.4198 121.351 56.7762 113.039 51.0035 111.845L45.8941 119.293L59.7122 127.753L86.6151 135.524C87.0862 136.047 87.6874 136.436 88.3576 136.652C89.0277 136.867 89.7431 136.902 90.431 136.752C91.1188 136.602 91.7548 136.273 92.2742 135.798C92.7936 135.323 93.178 134.719 93.3883 134.048C93.5987 133.377 93.6275 132.662 93.4719 131.976C93.3163 131.29 92.9818 130.657 92.5023 130.142C92.0228 129.627 91.4155 129.248 90.7419 129.043C90.0684 128.838 89.3526 128.815 88.6672 128.976L67.4198 121.351Z" fill="#A0616A"/>
<path d="M48.694 123.021L37.6017 115.901L35.2855 109.332C34.8355 108.041 34.756 106.65 35.0559 105.315C35.3558 103.981 36.0232 102.758 36.9827 101.783C38.2923 100.47 40.0521 99.7027 41.9061 99.6365C43.7602 99.5702 45.5703 100.21 46.9704 101.426C51.2136 105.117 56.6819 106.355 55.9697 110.254L58.0126 110.552L68.4593 118.478L62.2988 131.173L48.694 123.021Z" fill="#3F3D56"/>
<path d="M22.4454 75.4713C23.6432 73.6201 25.8908 72.3863 28.0698 72.733C28.2726 71.3437 28.853 70.0367 29.7479 68.9542C30.6427 67.8717 31.8177 67.0552 33.1449 66.5936C34.4721 66.1321 35.9006 66.0431 37.2748 66.3365C38.6491 66.6298 39.9164 67.2942 40.9389 68.2574C41.5805 67.7474 42.513 67.7206 43.2745 68.0238C44.0245 68.3645 44.6769 68.8877 45.1721 69.5455C46.4224 71.1032 47.2265 72.9705 47.4988 74.9486C47.7712 76.9267 47.5015 78.9416 46.7186 80.7787C46.9849 79.8116 46.0147 78.9017 45.0345 78.6846C44.0543 78.4676 43.026 78.6729 42.032 78.5316C40.758 78.3505 39.6127 77.6121 38.3367 77.4459C37.2642 77.3063 36.1858 77.581 35.14 77.8563C34.0942 78.1317 33.0185 78.4124 31.9446 78.285C30.8706 78.1576 29.4871 82.2239 29.5057 85.0878C29.5092 85.6306 29.3973 86.3274 28.8664 86.4426C28.2126 86.5844 27.8337 85.6829 27.2114 85.4372C26.657 85.2183 25.9923 85.624 25.7993 86.1874C25.7208 86.4756 25.7124 86.7784 25.7748 87.0705C25.8371 87.3626 25.9684 87.6355 26.1576 87.8667C26.5402 88.325 26.9943 88.7186 27.5024 89.0322L27.2461 89.2451C26.8198 89.8078 25.9354 89.8322 25.3209 89.4841C24.7065 89.1359 24.3027 88.5166 23.9387 87.9117C22.8019 86.0226 21.8046 84.0098 21.4034 81.8423C21.0022 79.6748 21.2477 77.3226 22.4454 75.4713Z" fill="#2F2E41"/>
<path opacity="0.2" d="M116.12 93.3801C117.202 97.8836 117.702 102.507 117.606 107.138C117.514 111.769 116.836 116.369 115.588 120.83C114.884 123.35 113.996 125.814 112.931 128.203C112.74 128.633 113.375 129.008 113.568 128.575C115.491 124.27 116.85 119.735 117.613 115.082C118.379 110.429 118.55 105.697 118.124 101C117.883 98.367 117.451 95.7549 116.832 93.1842C116.72 92.7234 116.009 92.9185 116.12 93.3801H116.12Z" fill="black"/>
<path opacity="0.2" d="M184.979 124.893L178.814 139.929C177.822 142.349 176.859 144.783 175.826 147.186C174.897 149.35 173.836 151.523 172.271 153.307C170.692 155.107 168.567 156.568 166.14 156.854C165.674 156.909 165.669 157.646 166.14 157.591C168.357 157.33 170.344 156.229 171.949 154.706C173.685 153.059 174.908 150.961 175.907 148.808C177.02 146.409 177.966 143.928 178.969 141.481L182.121 133.794L185.69 125.089C185.87 124.651 185.157 124.46 184.979 124.893Z" fill="black"/>
<path d="M111.898 138.541C112.006 138.856 112.212 139.128 112.485 139.319C112.758 139.511 113.085 139.61 113.418 139.604L119.931 139.437C120.267 139.43 120.591 139.315 120.856 139.109C121.121 138.903 121.313 138.617 121.401 138.293L122.323 128.447C122.65 128.595 123.006 128.668 123.365 128.661C123.677 128.653 123.984 128.584 124.269 128.458C124.554 128.331 124.811 128.15 125.026 127.924C125.241 127.698 125.41 127.433 125.522 127.142C125.634 126.851 125.687 126.541 125.68 126.229C125.672 125.918 125.603 125.611 125.476 125.326C125.349 125.041 125.168 124.784 124.942 124.569C124.716 124.355 124.45 124.187 124.159 124.075C123.868 123.963 123.557 123.909 123.246 123.917C123.102 123.916 122.959 123.931 122.819 123.961C122.666 123.796 122.481 123.665 122.274 123.576C122.068 123.487 121.845 123.442 121.62 123.445L111.602 123.703C111.519 123.706 111.436 123.716 111.355 123.734C111.135 123.775 110.927 123.862 110.744 123.99C110.561 124.118 110.408 124.284 110.294 124.476C110.181 124.669 110.11 124.883 110.086 125.105C110.062 125.327 110.087 125.552 110.157 125.764L111.898 138.541ZM122.512 127.779L123.168 125.433C123.242 125.161 123.244 124.876 123.173 124.604C123.205 124.604 123.233 124.589 123.264 124.588C123.714 124.579 124.149 124.748 124.474 125.059C124.799 125.37 124.987 125.796 124.998 126.246C125.009 126.695 124.84 127.13 124.53 127.455C124.22 127.781 123.794 127.97 123.344 127.982C123.053 127.991 122.766 127.921 122.512 127.779Z" fill="#2F2E41"/>
<path d="M111.355 123.734C111.569 124.953 113.968 125.81 116.854 125.661C119.507 125.539 121.676 124.608 122.074 123.505C121.927 123.462 121.774 123.441 121.62 123.445L111.602 123.703C111.519 123.706 111.436 123.716 111.355 123.734Z" fill="#3F3D56"/>
<path d="M90.2052 125.272C90.2757 125.061 90.2999 124.836 90.2763 124.614C90.2527 124.392 90.1817 124.178 90.0682 123.985C89.9547 123.793 89.8013 123.627 89.6182 123.499C89.4352 123.371 89.2268 123.283 89.0071 123.243C88.9258 123.225 88.8431 123.215 88.76 123.212L78.7418 122.953C78.517 122.951 78.2943 122.996 78.0879 123.085C77.8815 123.174 77.6961 123.305 77.5435 123.47C77.4032 123.44 77.2601 123.425 77.1167 123.426C76.487 123.41 75.8767 123.645 75.4203 124.078C74.9638 124.512 74.6985 125.109 74.6827 125.738C74.6669 126.367 74.9019 126.977 75.336 127.433C75.7701 127.889 76.3678 128.154 76.9975 128.17C77.3564 128.177 77.7124 128.104 78.0394 127.956L78.961 137.802C79.0496 138.126 79.2408 138.412 79.5058 138.618C79.7708 138.824 80.0955 138.939 80.4313 138.946L86.9442 139.113C87.2776 139.119 87.6043 139.019 87.8774 138.828C88.1505 138.637 88.3559 138.364 88.4643 138.049L90.2052 125.272ZM77.0183 127.491C76.5686 127.479 76.142 127.29 75.832 126.964C75.5219 126.639 75.3537 126.204 75.3642 125.754C75.3748 125.305 75.5632 124.878 75.8881 124.568C76.2131 124.257 76.6481 124.088 77.0978 124.097C77.1296 124.097 77.1577 124.112 77.1895 124.112C77.1182 124.384 77.1199 124.67 77.1945 124.941L77.8503 127.288C77.5966 127.43 77.309 127.5 77.0183 127.491Z" fill="#2F2E41"/>
<path d="M89.0071 123.243C88.7937 124.462 86.394 125.319 83.5086 125.17C80.8553 125.048 78.6858 124.117 78.2884 123.014C78.4355 122.97 78.5884 122.95 78.7418 122.953L88.76 123.212C88.8431 123.215 88.9258 123.225 89.0071 123.243Z" fill="#3F3D56"/>
<path d="M79.5128 101.855C80.0147 101.488 80.5909 101.236 81.2008 101.117C81.8107 100.997 82.4395 101.012 83.0428 101.161C83.6462 101.311 84.2094 101.59 84.6929 101.981C85.1764 102.371 85.5683 102.862 85.8412 103.42L100.841 101.607L97.337 108.627L83.6301 109.272C82.6615 109.668 81.5812 109.695 80.594 109.348C79.6068 109.001 78.7812 108.305 78.2737 107.391C77.7661 106.476 77.612 105.408 77.8403 104.387C78.0687 103.367 78.6638 102.466 79.5128 101.855L79.5128 101.855Z" fill="#9E616A"/>
<path d="M128.431 87.5575C127.988 88.4245 127.45 89.4339 126.845 90.5343C124.721 94.4124 121.803 99.418 119.556 103.227C117.636 106.477 116.203 108.859 116.163 108.926L116.102 109.024L102.903 109.321L100.07 109.385L99.1068 109.407L88.7642 109.64L88.8625 109.026L89.8287 102.94L89.927 102.319L98.9863 100.815L102.298 100.268L109.644 99.0496L110.92 95.2868C113.167 88.6734 116.922 82.6724 121.889 77.7576C122.034 77.6176 122.182 77.485 122.337 77.3597C122.472 77.2517 122.609 77.1485 122.75 77.0552C123.344 77.8976 123.875 78.659 124.325 79.2706L125.414 80.7516C126.901 82.7752 127.931 85.0974 128.431 87.5575Z" fill="#BFDCFF"/>
<path d="M73.5464 110.05C73.6548 110.365 73.8602 110.638 74.1333 110.829C74.4064 111.02 74.7331 111.12 75.0665 111.114L81.5794 110.946C81.9152 110.94 82.2399 110.825 82.5049 110.618C82.7699 110.412 82.9611 110.126 83.0497 109.802L83.9713 99.9565C84.2983 100.104 84.6543 100.178 85.0132 100.17C85.643 100.155 86.2406 99.8895 86.6747 99.4335C87.1088 98.9774 87.3438 98.3678 87.328 97.7387C87.3122 97.1095 87.0469 96.5124 86.5904 96.0787C86.134 95.645 85.5237 95.4102 84.894 95.426C84.7505 95.4256 84.6075 95.4404 84.4672 95.4704C84.3146 95.3055 84.1292 95.1743 83.9228 95.0854C83.7164 94.9964 83.4937 94.9516 83.2689 94.9539L73.2507 95.2123C73.1676 95.2154 73.0849 95.2256 73.0036 95.243C72.7839 95.2839 72.5755 95.3713 72.3925 95.4995C72.2094 95.6276 72.056 95.7934 71.9425 95.9857C71.829 96.178 71.758 96.3924 71.7344 96.6144C71.7108 96.8365 71.735 97.061 71.8055 97.2728L73.5464 110.05ZM84.1603 99.288L84.8162 96.9417C84.8908 96.6707 84.8925 96.3848 84.8212 96.1129C84.853 96.1128 84.8811 96.0978 84.9129 96.0977C85.3626 96.0884 85.7976 96.2576 86.1225 96.5683C86.4475 96.8789 86.6359 97.3057 86.6464 97.7549C86.657 98.2041 86.4888 98.6392 86.1787 98.9647C85.8687 99.2902 85.442 99.4796 84.9924 99.4913C84.7017 99.5004 84.414 99.4301 84.1603 99.288Z" fill="#CCCCCC"/>
<path d="M73.0035 95.243C73.217 96.4622 75.6166 97.3193 78.502 97.1703C81.1553 97.0482 83.3248 96.1174 83.7223 95.0142C83.5752 94.9708 83.4223 94.9504 83.2689 94.9539L73.2507 95.2123C73.1676 95.2154 73.0849 95.2256 73.0035 95.243Z" fill="#3F3D56"/>
</g>
<defs>
<clipPath id="clip0_3_23">
<rect width="207" height="207" fill="white"/>
</clipPath>
</defs>
</svg>
