<svg width="15" height="15" viewBox="0 0 15 15" fill="none" xmlns="http://www.w3.org/2000/svg">
<path d="M7.5 0C6.67591 0 5.87033 0.231509 5.18512 0.665251C4.49992 1.09899 3.96587 1.71549 3.6505 2.43678C3.33514 3.15806 3.25262 3.95175 3.41339 4.71746C3.57417 5.48318 3.971 6.18653 4.55372 6.73858C5.13644 7.29063 5.87887 7.66658 6.68712 7.81889C7.49538 7.9712 8.33316 7.89303 9.09451 7.59426C9.85587 7.29549 10.5066 6.78955 10.9645 6.14041C11.4223 5.49127 11.6667 4.72808 11.6667 3.94737C11.6667 2.90046 11.2277 1.89643 10.4463 1.15616C9.66488 0.415882 8.60507 0 7.5 0V0ZM7.5 6.31579C7.00555 6.31579 6.5222 6.17688 6.11107 5.91664C5.69995 5.65639 5.37952 5.2865 5.1903 4.85372C5.00108 4.42095 4.95157 3.94474 5.04804 3.48531C5.1445 3.02588 5.3826 2.60387 5.73223 2.27264C6.08186 1.94141 6.52732 1.71584 7.01227 1.62446C7.49723 1.53307 7.99989 1.57997 8.45671 1.75923C8.91352 1.93849 9.30397 2.24206 9.57867 2.63154C9.85338 3.02103 10 3.47894 10 3.94737C10 4.57551 9.73661 5.17793 9.26777 5.6221C8.79893 6.06626 8.16304 6.31579 7.5 6.31579V6.31579ZM15 15V14.2105C15 12.7449 14.3854 11.3392 13.2915 10.3028C12.1975 9.26645 10.7138 8.68421 9.16667 8.68421H5.83333C4.28624 8.68421 2.80251 9.26645 1.70854 10.3028C0.614581 11.3392 0 12.7449 0 14.2105V15H1.66667V14.2105C1.66667 13.1636 2.10565 12.1596 2.88706 11.4193C3.66846 10.679 4.72826 10.2632 5.83333 10.2632H9.16667C10.2717 10.2632 11.3315 10.679 12.1129 11.4193C12.8943 12.1596 13.3333 13.1636 13.3333 14.2105V15H15Z" fill="#C1C3C7"/>
</svg>
